<svg width="34" height="30" viewBox="0 0 34 30" fill="none" xmlns="http://www.w3.org/2000/svg">
<path d="M15.2737 21.6794L23.8996 13.0534L21.7241 10.8779L15.2737 17.3282L12.0294 14.084L9.85383 16.2595L15.2737 21.6794ZM16.8767 30C14.9683 30 13.1808 29.6374 11.5141 28.9122C9.84747 28.187 8.39709 27.2074 7.16299 25.9733C5.92889 24.7392 4.94925 23.2888 4.22406 21.6221C3.49887 19.9555 3.13627 18.1679 3.13627 16.2595C3.13627 14.3511 3.49887 12.5636 4.22406 10.8969C4.94925 9.23028 5.92889 7.7799 7.16299 6.5458C8.39709 5.3117 9.84747 4.33206 11.5141 3.60687C13.1808 2.88168 14.9683 2.51908 16.8767 2.51908C18.7851 2.51908 20.5727 2.88168 22.2393 3.60687C23.906 4.33206 25.3564 5.3117 26.5905 6.5458C27.8246 7.7799 28.8042 9.23028 29.5294 10.8969C30.2546 12.5636 30.6172 14.3511 30.6172 16.2595C30.6172 18.1679 30.2546 19.9555 29.5294 21.6221C28.8042 23.2888 27.8246 24.7392 26.5905 25.9733C25.3564 27.2074 23.906 28.187 22.2393 28.9122C20.5727 29.6374 18.7851 30 16.8767 30ZM7.10574 0L9.24314 2.1374L2.75459 8.62595L0.617188 6.48855L7.10574 0ZM26.6477 0L33.1363 6.48855L30.9989 8.62595L24.5103 2.1374L26.6477 0ZM16.8767 26.9466C19.8538 26.9466 22.3793 25.9097 24.4531 23.8359C26.5269 21.7621 27.5638 19.2366 27.5638 16.2595C27.5638 13.2824 26.5269 10.757 24.4531 8.68321C22.3793 6.60941 19.8538 5.57252 16.8767 5.57252C13.8996 5.57252 11.3742 6.60941 9.3004 8.68321C7.2266 10.757 6.18971 13.2824 6.18971 16.2595C6.18971 19.2366 7.2266 21.7621 9.3004 23.8359C11.3742 25.9097 13.8996 26.9466 16.8767 26.9466Z" fill="white"/>
</svg>
