<svg width="331" height="109" viewBox="0 0 331 109" fill="none" xmlns="http://www.w3.org/2000/svg">
<g clip-path="url(#clip0_163_1733)">
<rect x="0.0625" width="330.875" height="108.875" rx="26" fill="white"/>
<g filter="url(#filter0_d_163_1733)">
<mask id="mask0_163_1733" style="mask-type:alpha" maskUnits="userSpaceOnUse" x="10" y="10" width="89" height="89">
<rect x="10.0625" y="10" width="88.8745" height="88.8745" fill="#D9D9D9"/>
</mask>
<g mask="url(#mask0_163_1733)">
<path d="M49.6858 57.1221L46.5381 52.4006C46.2295 51.9069 45.7975 51.5057 45.242 51.1971C44.6866 50.8885 44.1002 50.7342 43.4831 50.7342H19.2277C18.5488 49.1295 18.0859 47.5866 17.8391 46.1053C17.5922 44.6241 17.4688 43.0811 17.4688 41.4765C17.4688 35.6749 19.4129 30.83 23.3011 26.9418C27.1894 23.0535 32.0343 21.1094 37.8358 21.1094C41.0452 21.1094 44.1002 21.7883 47.001 23.1461C49.9018 24.5039 52.4014 26.4172 54.4998 28.8859C56.5982 26.4172 59.0978 24.5039 61.9986 23.1461C64.8993 21.7883 67.9544 21.1094 71.1638 21.1094C76.9653 21.1094 81.8102 23.0535 85.6985 26.9418C89.5867 30.83 91.5308 35.6749 91.5308 41.4765C91.5308 43.0811 91.4074 44.6241 91.1605 46.1053C90.9137 47.5866 90.4508 49.1295 89.7719 50.7342H67.7384L61.3505 41.2913C60.9802 40.7358 60.5019 40.3192 59.9156 40.0415C59.3293 39.7638 58.6966 39.6249 58.0177 39.6249C57.2154 39.6249 56.5211 39.8563 55.9347 40.3192C55.3484 40.7821 54.9318 41.3839 54.685 42.1245L49.6858 57.1221ZM54.4998 89.0613L49.1303 84.2473C42.6499 78.4458 37.3421 73.4774 33.2069 69.3423C29.0718 65.2072 25.8316 61.4732 23.4863 58.1404H41.2612L47.6491 67.5833C48.0194 68.1388 48.4977 68.5554 49.084 68.8331C49.6703 69.1109 50.3029 69.2497 50.9818 69.2497C51.7842 69.2497 52.4785 69.0183 53.0648 68.5554C53.6512 68.0925 54.0678 67.4908 54.3146 66.7501L59.3138 51.66L62.554 56.474C62.8626 56.9678 63.2947 57.3689 63.8501 57.6775C64.4056 57.9861 64.9919 58.1404 65.6091 58.1404H85.5133C83.168 61.4732 79.9278 65.2072 75.7926 69.3423C71.6575 73.4774 66.3497 78.4458 59.8693 84.2473L54.4998 89.0613Z" fill="#FF6969"/>
</g>
</g>
<path d="M119.376 71.4373L109.803 37.9827H117.53L123.067 61.2277H123.345L129.455 37.9827H136.07L142.163 61.2767H142.457L147.995 37.9827H155.722L146.149 71.4373H139.256L132.885 49.5644H132.624L126.269 71.4373H119.376ZM168.116 71.9273C165.535 71.9273 163.313 71.4046 161.451 70.3591C159.6 69.3028 158.173 67.8108 157.171 65.8833C156.169 63.9448 155.669 61.6525 155.669 59.0061C155.669 56.4252 156.169 54.16 157.171 52.2107C158.173 50.2614 159.584 48.7422 161.402 47.6532C163.232 46.5641 165.377 46.0196 167.838 46.0196C169.494 46.0196 171.035 46.2865 172.461 46.8201C173.899 47.3428 175.151 48.1323 176.218 49.1887C177.296 50.245 178.135 51.5736 178.734 53.1745C179.333 54.7644 179.632 56.6266 179.632 58.7611V60.6723H158.445V56.3598H173.082C173.082 55.3579 172.864 54.4704 172.428 53.6972C171.993 52.924 171.388 52.3196 170.615 51.884C169.853 51.4375 168.965 51.2142 167.953 51.2142C166.896 51.2142 165.96 51.4593 165.143 51.9493C164.337 52.4285 163.705 53.0765 163.248 53.8932C162.791 54.6991 162.557 55.5975 162.546 56.5885V60.6887C162.546 61.9302 162.774 63.0028 163.232 63.9067C163.7 64.8106 164.359 65.5076 165.208 65.9976C166.058 66.4877 167.065 66.7327 168.23 66.7327C169.003 66.7327 169.711 66.6238 170.354 66.406C170.996 66.1882 171.546 65.8615 172.004 65.4259C172.461 64.9903 172.81 64.4567 173.049 63.825L179.485 64.2498C179.159 65.7962 178.489 67.1465 177.476 68.3009C176.474 69.4444 175.178 70.3374 173.588 70.9799C172.009 71.6115 170.185 71.9273 168.116 71.9273ZM191.132 37.9827V71.4373H184.173V37.9827H191.132ZM203.665 37.9827V71.4373H196.707V37.9827H203.665Z" fill="black"/>
<path d="M209.371 37.9827H218.094L227.307 60.46H227.699L236.912 37.9827H245.635V71.4373H238.774V49.6624H238.496L229.839 71.2739H225.167L216.509 49.5807H216.231V71.4373H209.371V37.9827ZM258.487 71.911C256.886 71.911 255.459 71.6333 254.207 71.0779C252.954 70.5116 251.963 69.6785 251.234 68.5786C250.515 67.4678 250.156 66.0847 250.156 64.4294C250.156 63.0355 250.411 61.8648 250.923 60.9174C251.435 59.9699 252.132 59.2076 253.014 58.6304C253.896 58.0533 254.898 57.6177 256.02 57.3236C257.152 57.0296 258.339 56.8227 259.581 56.7029C261.04 56.5504 262.216 56.4088 263.109 56.2782C264.002 56.1366 264.65 55.9297 265.053 55.6574C265.456 55.3852 265.658 54.9822 265.658 54.4486V54.3506C265.658 53.316 265.331 52.5156 264.678 51.9493C264.035 51.383 263.12 51.0999 261.933 51.0999C260.681 51.0999 259.684 51.3776 258.944 51.933C258.203 52.4775 257.713 53.1636 257.474 53.9912L251.038 53.4685C251.364 51.9439 252.007 50.6262 252.965 49.5154C253.924 48.3937 255.16 47.5334 256.673 46.9344C258.198 46.3246 259.962 46.0196 261.966 46.0196C263.36 46.0196 264.694 46.183 265.968 46.5097C267.253 46.8364 268.391 47.3428 269.382 48.0289C270.384 48.715 271.174 49.5971 271.751 50.6752C272.328 51.7424 272.616 53.022 272.616 54.514V71.4373H266.017V67.9579H265.821C265.418 68.7419 264.879 69.4335 264.204 70.0324C263.529 70.6205 262.717 71.0833 261.77 71.4209C260.822 71.7476 259.728 71.911 258.487 71.911ZM260.479 67.1084C261.503 67.1084 262.407 66.907 263.191 66.504C263.975 66.0902 264.59 65.5348 265.037 64.8378C265.483 64.1409 265.707 63.3513 265.707 62.4692V59.8066C265.489 59.9481 265.189 60.0788 264.808 60.1986C264.438 60.3075 264.019 60.411 263.55 60.509C263.082 60.5961 262.614 60.6778 262.146 60.754C261.677 60.8194 261.253 60.8793 260.871 60.9337C260.055 61.0535 259.341 61.2441 258.732 61.5054C258.122 61.7668 257.648 62.1207 257.31 62.5672C256.973 63.0028 256.804 63.5473 256.804 64.2008C256.804 65.1482 257.147 65.8724 257.833 66.3733C258.53 66.8634 259.412 67.1084 260.479 67.1084ZM291.361 46.3463V51.5736H276.251V46.3463H291.361ZM279.681 40.335H286.64V63.727C286.64 64.3695 286.738 64.8705 286.934 65.2299C287.13 65.5784 287.403 65.8234 287.751 65.965C288.11 66.1065 288.524 66.1773 288.993 66.1773C289.319 66.1773 289.646 66.1501 289.973 66.0956C290.299 66.0303 290.55 65.9813 290.724 65.9486L291.819 71.1269C291.47 71.2358 290.98 71.361 290.348 71.5026C289.717 71.6551 288.949 71.7476 288.045 71.7803C286.368 71.8456 284.898 71.6224 283.635 71.1106C282.382 70.5987 281.408 69.8037 280.711 68.7256C280.014 67.6475 279.671 66.2862 279.681 64.6418V40.335ZM307.059 71.9273C304.478 71.9273 302.257 71.4046 300.395 70.3591C298.543 69.3028 297.117 67.8108 296.115 65.8833C295.113 63.9448 294.612 61.6525 294.612 59.0061C294.612 56.4252 295.113 54.16 296.115 52.2107C297.117 50.2614 298.527 48.7422 300.346 47.6532C302.175 46.5641 304.32 46.0196 306.782 46.0196C308.437 46.0196 309.978 46.2865 311.404 46.8201C312.842 47.3428 314.094 48.1323 315.162 49.1887C316.24 50.245 317.078 51.5736 317.677 53.1745C318.276 54.7644 318.576 56.6266 318.576 58.7611V60.6723H297.389V56.3598H312.025C312.025 55.3579 311.807 54.4704 311.372 53.6972C310.936 52.924 310.332 52.3196 309.559 51.884C308.796 51.4375 307.909 51.2142 306.896 51.2142C305.84 51.2142 304.903 51.4593 304.086 51.9493C303.28 52.4285 302.649 53.0765 302.191 53.8932C301.734 54.6991 301.5 55.5975 301.489 56.5885V60.6887C301.489 61.9302 301.718 63.0028 302.175 63.9067C302.643 64.8106 303.302 65.5076 304.152 65.9976C305.001 66.4877 306.008 66.7327 307.174 66.7327C307.947 66.7327 308.655 66.6238 309.297 66.406C309.94 66.1882 310.49 65.8615 310.947 65.4259C311.404 64.9903 311.753 64.4567 311.993 63.825L318.429 64.2498C318.102 65.7962 317.432 67.1465 316.419 68.3009C315.417 69.4444 314.122 70.3374 312.532 70.9799C310.953 71.6115 309.128 71.9273 307.059 71.9273Z" fill="#FF6969"/>
</g>
<defs>
<filter id="filter0_d_163_1733" x="-2.33125" y="1.30938" width="113.662" height="107.552" filterUnits="userSpaceOnUse" color-interpolation-filters="sRGB">
<feFlood flood-opacity="0" result="BackgroundImageFix"/>
<feColorMatrix in="SourceAlpha" type="matrix" values="0 0 0 0 0 0 0 0 0 0 0 0 0 0 0 0 0 0 127 0" result="hardAlpha"/>
<feOffset/>
<feGaussianBlur stdDeviation="9.9"/>
<feComposite in2="hardAlpha" operator="out"/>
<feColorMatrix type="matrix" values="0 0 0 0 1 0 0 0 0 0.411765 0 0 0 0 0.411765 0 0 0 0.53 0"/>
<feBlend mode="normal" in2="BackgroundImageFix" result="effect1_dropShadow_163_1733"/>
<feBlend mode="normal" in="SourceGraphic" in2="effect1_dropShadow_163_1733" result="shape"/>
</filter>
<clipPath id="clip0_163_1733">
<rect x="0.0625" width="330.875" height="108.875" rx="26" fill="white"/>
</clipPath>
</defs>
</svg>
