<svg width="31" height="30" viewBox="0 0 31 30" fill="none" xmlns="http://www.w3.org/2000/svg">
<path d="M17.7462 30L15.625 27.8788L21.0038 22.5L8.125 9.62121L2.74621 15L0.625 12.8788L2.74621 10.6818L0.625 8.56061L3.80682 5.37879L1.68561 3.18182L3.80682 1.06061L6.00379 3.18182L9.18561 0L11.3068 2.12121L13.5038 0L15.625 2.12121L10.2462 7.5L23.125 20.3788L28.5038 15L30.625 17.1212L28.5038 19.3182L30.625 21.4394L27.4432 24.6212L29.5644 26.8182L27.4432 28.9394L25.2462 26.8182L22.0644 30L19.9432 27.8788L17.7462 30Z" fill="white"/>
</svg>
