<svg width="25" height="25" viewBox="0 0 25 25" fill="none" xmlns="http://www.w3.org/2000/svg">
<path fill-rule="evenodd" clip-rule="evenodd" d="M12.5 0.874512C5.87 0.874512 0.5 6.24451 0.5 12.8745C0.5 18.1845 3.935 22.6695 8.705 24.2595C9.305 24.3645 9.53 24.0045 9.53 23.6895C9.53 23.4045 9.515 22.4595 9.515 21.4545C6.5 22.0095 5.72 20.7195 5.48 20.0445C5.345 19.6995 4.76 18.6345 4.25 18.3495C3.83 18.1245 3.23 17.5695 4.235 17.5545C5.18 17.5395 5.855 18.4245 6.08 18.7845C7.16 20.5995 8.885 20.0895 9.575 19.7745C9.68 18.9945 9.995 18.4695 10.34 18.1695C7.67 17.8695 4.88 16.8345 4.88 12.2445C4.88 10.9395 5.345 9.85951 6.11 9.01951C5.99 8.71951 5.57 7.48951 6.23 5.83951C6.23 5.83951 7.235 5.52451 9.53 7.06951C10.49 6.79951 11.51 6.66451 12.53 6.66451C13.55 6.66451 14.57 6.79951 15.53 7.06951C17.825 5.50951 18.83 5.83951 18.83 5.83951C19.49 7.48951 19.07 8.71951 18.95 9.01951C19.715 9.85951 20.18 10.9245 20.18 12.2445C20.18 16.8495 17.375 17.8695 14.705 18.1695C15.14 18.5445 15.515 19.2645 15.515 20.3895C15.515 21.9945 15.5 23.2845 15.5 23.6895C15.5 24.0045 15.725 24.3795 16.325 24.2595C21.065 22.6695 24.5 18.1695 24.5 12.8745C24.5 6.24451 19.13 0.874512 12.5 0.874512Z" fill="#1B1F23"/>
</svg>
