<svg width="31" height="30" viewBox="0 0 31 30" fill="none" xmlns="http://www.w3.org/2000/svg">
<path d="M15.375 15C16.7639 15 17.9444 14.5139 18.9167 13.5417C19.8889 12.5694 20.375 11.3889 20.375 10C20.375 8.61111 19.8889 7.43056 18.9167 6.45833C17.9444 5.48611 16.7639 5 15.375 5C13.9861 5 12.8056 5.48611 11.8333 6.45833C10.8611 7.43056 10.375 8.61111 10.375 10C10.375 11.3889 10.8611 12.5694 11.8333 13.5417C12.8056 14.5139 13.9861 15 15.375 15ZM12.875 10.8333C12.6528 10.8333 12.4583 10.75 12.2917 10.5833C12.125 10.4167 12.0417 10.2222 12.0417 10C12.0417 9.77778 12.125 9.58333 12.2917 9.41667C12.4583 9.25 12.6528 9.16667 12.875 9.16667C13.0972 9.16667 13.2917 9.25 13.4583 9.41667C13.625 9.58333 13.7083 9.77778 13.7083 10C13.7083 10.2222 13.625 10.4167 13.4583 10.5833C13.2917 10.75 13.0972 10.8333 12.875 10.8333ZM15.375 10.8333C15.1528 10.8333 14.9583 10.75 14.7917 10.5833C14.625 10.4167 14.5417 10.2222 14.5417 10C14.5417 9.77778 14.625 9.58333 14.7917 9.41667C14.9583 9.25 15.1528 9.16667 15.375 9.16667C15.5972 9.16667 15.7917 9.25 15.9583 9.41667C16.125 9.58333 16.2083 9.77778 16.2083 10C16.2083 10.2222 16.125 10.4167 15.9583 10.5833C15.7917 10.75 15.5972 10.8333 15.375 10.8333ZM17.875 10.8333C17.6528 10.8333 17.4583 10.75 17.2917 10.5833C17.125 10.4167 17.0417 10.2222 17.0417 10C17.0417 9.77778 17.125 9.58333 17.2917 9.41667C17.4583 9.25 17.6528 9.16667 17.875 9.16667C18.0972 9.16667 18.2917 9.25 18.4583 9.41667C18.625 9.58333 18.7083 9.77778 18.7083 10C18.7083 10.2222 18.625 10.4167 18.4583 10.5833C18.2917 10.75 18.0972 10.8333 17.875 10.8333ZM3.70833 30C2.79167 30 2.00694 29.6736 1.35417 29.0208C0.701389 28.3681 0.375 27.5833 0.375 26.6667V3.33333C0.375 2.41667 0.701389 1.63194 1.35417 0.979167C2.00694 0.326389 2.79167 0 3.70833 0H27.0417C27.9583 0 28.7431 0.326389 29.3958 0.979167C30.0486 1.63194 30.375 2.41667 30.375 3.33333V26.6667C30.375 27.5833 30.0486 28.3681 29.3958 29.0208C28.7431 29.6736 27.9583 30 27.0417 30H3.70833ZM3.70833 26.6667H27.0417V3.33333H3.70833V26.6667Z" fill="white"/>
</svg>
