<svg width="16" height="20" viewBox="0 0 16 20" fill="none" xmlns="http://www.w3.org/2000/svg">
<path d="M8 20C5.68333 19.4167 3.77083 18.0875 2.2625 16.0125C0.754167 13.9375 0 11.6333 0 9.1V3L8 0L16 3V9.1C16 10.5167 15.7583 11.8792 15.275 13.1875C14.7917 14.4958 14.1 15.65 13.2 16.65L10 13.45C9.7 13.6333 9.37917 13.7708 9.0375 13.8625C8.69583 13.9542 8.35 14 8 14C6.9 14 5.95833 13.6083 5.175 12.825C4.39167 12.0417 4 11.1 4 10C4 8.9 4.39167 7.95833 5.175 7.175C5.95833 6.39167 6.9 6 8 6C9.1 6 10.0417 6.39167 10.825 7.175C11.6083 7.95833 12 8.9 12 10C12 10.3667 11.9542 10.7208 11.8625 11.0625C11.7708 11.4042 11.6333 11.7333 11.45 12.05L12.95 13.55C13.2833 12.8667 13.5417 12.15 13.725 11.4C13.9083 10.65 14 9.88333 14 9.1V4.375L8 2.125L2 4.375V9.1C2 11.1167 2.56667 12.95 3.7 14.6C4.83333 16.25 6.26667 17.35 8 17.9C8.43333 17.7667 8.84583 17.5958 9.2375 17.3875C9.62917 17.1792 10.0167 16.9333 10.4 16.65L11.8 18.05C11.25 18.5 10.6542 18.8917 10.0125 19.225C9.37083 19.5583 8.7 19.8167 8 20ZM8 12C8.55 12 9.02083 11.8042 9.4125 11.4125C9.80417 11.0208 10 10.55 10 10C10 9.45 9.80417 8.97917 9.4125 8.5875C9.02083 8.19583 8.55 8 8 8C7.45 8 6.97917 8.19583 6.5875 8.5875C6.19583 8.97917 6 9.45 6 10C6 10.55 6.19583 11.0208 6.5875 11.4125C6.97917 11.8042 7.45 12 8 12Z" fill="#1C1B1F"/>
</svg>
