<svg width="315" height="223" viewBox="0 0 315 223" fill="none" xmlns="http://www.w3.org/2000/svg">
<g clip-path="url(#clip0_99_1070)">
<path opacity="0.1" d="M104.725 222.875C120.065 222.875 132.501 220.879 132.501 218.416C132.501 215.954 120.065 213.958 104.725 213.958C89.385 213.958 76.9492 215.954 76.9492 218.416C76.9492 220.879 89.385 222.875 104.725 222.875Z" fill="#7771E6"/>
<path opacity="0.1" d="M255.711 223C274.853 223 290.371 221.004 290.371 218.541C290.371 216.079 274.853 214.083 255.711 214.083C236.569 214.083 221.051 216.079 221.051 218.541C221.051 221.004 236.569 223 255.711 223Z" fill="#7771E6"/>
<path opacity="0.1" d="M3.94448 96.3521H32.875V135.762H6.06246C5.9912 136.166 5.92278 136.574 5.84867 136.981H32.875V168.764C32.8265 168.75 32.7838 168.733 32.7381 168.716C31.9742 168.414 31.2159 168.095 30.4577 167.753L29.9731 167.533C29.2129 167.175 28.4528 166.795 27.6926 166.394C27.4275 166.254 27.1624 166.109 26.9002 165.961C22.6801 163.598 18.8464 160.605 15.5321 157.083C15.4352 156.989 15.3439 156.89 15.247 156.799C14.7852 156.297 14.332 155.79 13.893 155.272L13.4084 154.702C12.8896 154.066 12.3879 153.414 11.9004 152.753C11.8292 152.656 11.7608 152.559 11.6866 152.468C9.7042 149.721 8.05815 146.746 6.78366 143.608C6.74375 143.514 6.70954 143.411 6.67248 143.323C6.281 142.316 5.93418 141.3 5.63202 140.275C5.5009 139.844 5.37547 139.42 5.26715 138.973C5.22724 138.842 5.19303 138.713 5.16168 138.585C3.54255 132.269 3.35156 125.708 3.35156 119.192C3.35156 118.432 3.35156 117.668 3.35156 116.913C3.35156 114.278 3.38292 111.625 3.42853 108.976C3.42853 108.289 3.45703 107.605 3.47129 106.916C3.51119 105.167 3.56821 103.417 3.64232 101.668C3.65942 101.181 3.68223 100.697 3.70788 100.212C3.70788 99.9332 3.72214 99.654 3.75064 99.3748C3.81906 98.3606 3.87607 97.3549 3.94448 96.3521Z" fill="#7771E6"/>
<path opacity="0.1" d="M32.877 52.4721H17.0078C19.5874 48.4367 22.406 44.559 25.4484 40.8597C27.8058 37.9652 30.2943 35.1447 32.877 32.4268V52.4721Z" fill="#7771E6"/>
<path opacity="0.1" d="M32.8744 53.6914V95.1325H4.03516C4.03516 95.0128 4.05511 94.8903 4.06366 94.7707C4.08932 94.443 4.11497 94.1154 4.14348 93.7906C4.17483 93.4088 4.20904 93.0242 4.2461 92.651C4.28316 92.2778 4.32306 91.822 4.36582 91.4089C4.40858 90.9958 4.44849 90.577 4.49695 90.1639C4.54541 89.7508 4.58817 89.3377 4.63948 88.9274C4.69079 88.5172 4.7364 88.1012 4.79056 87.691C4.83332 87.3491 4.87893 87.0101 4.92453 86.6682C4.9901 86.1867 5.05851 85.7024 5.13263 85.2238C5.13263 85.1525 5.15258 85.0785 5.16398 85.0101C5.68427 81.5063 6.39319 78.0331 7.28766 74.6057C8.22396 71.0102 9.41958 67.4873 10.8651 64.0645C12.4015 60.4838 14.2003 57.0215 16.247 53.7057L32.8744 53.6914Z" fill="#7771E6"/>
<path opacity="0.1" d="M39.7812 96.3491V135.762H101.573V96.3491H39.7812ZM39.7812 136.978V170.824C40.1347 170.898 40.4853 170.969 40.8331 171.029C41.3063 171.12 41.7767 171.203 42.2584 171.274C42.3496 171.288 42.4437 171.303 42.5435 171.311C42.7316 171.342 42.9254 171.368 43.1136 171.394C43.5896 171.459 44.0628 171.513 44.5389 171.556C44.7641 171.579 44.9921 171.599 45.2201 171.616L45.7703 171.659C46.0696 171.681 46.3661 171.699 46.6597 171.707C46.8421 171.707 47.0246 171.724 47.2127 171.73C47.3552 171.73 47.4978 171.73 47.646 171.73C47.7942 171.73 48.0052 171.73 48.1847 171.73C48.4299 171.73 48.675 171.73 48.9173 171.73H49.2452C49.4903 171.73 49.7355 171.73 49.9778 171.707H49.9949C50.163 171.707 50.3341 171.707 50.5051 171.684C50.5526 171.687 50.6002 171.687 50.6476 171.684C50.7902 171.684 50.9327 171.684 51.0695 171.664H51.1693L52.1242 171.59C52.4378 171.562 52.7542 171.525 53.0735 171.491L53.7234 171.414C56.3675 171.043 58.9823 170.487 61.5482 169.75C67.3121 168.143 72.9505 165.895 78.7116 164.248C86.1601 162.126 94.3897 161.083 101.587 163.679V136.978H39.7812ZM101.573 52.4721V0.00270603C94.808 -0.0705476 88.0612 0.720269 81.4966 2.35595C65.8498 6.28468 51.8107 14.8059 39.7812 25.689V52.4693H42.8827V53.6858H39.7812V95.1325H101.573V53.6886H55.6162V52.4721H101.573ZM180.942 34.7487C177.071 34.612 173.222 33.3869 169.742 31.4952C163.086 27.877 157.769 22.2902 151.829 17.5751C139.486 7.75474 124.178 1.82889 108.474 0.358827V52.4721H196.685L196.905 52.2414L180.942 34.7487ZM188.978 33.3242L197.498 42.6688V30.8741C194.644 31.2274 192.145 32.0678 188.989 33.3128L188.978 33.3242ZM197.498 179.228V136.978H179.343C179.294 136.799 179.246 136.616 179.189 136.434C179.243 136.616 179.288 136.799 179.34 136.978H108.486V167.533C109.159 168.032 109.823 168.556 110.481 169.089C111.191 169.659 111.892 170.26 112.596 170.85L113.306 171.436C113.645 171.721 113.987 172.006 114.332 172.274C115.016 172.829 115.707 173.376 116.405 173.915C116.75 174.2 117.103 174.456 117.454 174.724C123.02 178.978 128.892 182.816 135.022 186.208C136.396 186.968 137.782 187.71 139.181 188.433C140.113 188.909 141.051 189.382 141.991 189.841C143.405 190.53 144.831 191.195 146.267 191.835C159.513 197.777 173.519 201.855 187.886 203.952C191.076 204.423 194.28 204.793 197.495 205.063V179.225H197.78L197.498 179.228ZM108.486 53.6886V95.1325H197.509V53.6886H108.486ZM108.486 96.3491V135.762H197.509V96.3491H108.486ZM204.419 30.8228V43.9794L215.294 32.0536C211.691 31.4724 208.066 31.0574 204.419 30.8086V30.8228ZM204.419 96.3633V135.762H291.005V96.3491L204.419 96.3633ZM290.689 182.357L290.994 136.978H204.419V205.516C209.996 205.75 215.582 205.683 221.152 205.316H221.249C223.909 205.149 226.558 204.906 229.193 204.587H229.253C243.315 202.951 257.065 199.284 270.074 193.701M307.701 102.839C307.376 102.073 307.037 101.312 306.692 100.56C306.048 99.1353 305.367 97.7507 304.665 96.3661H297.909V135.762H314.99C314.982 124.605 312.157 113.209 307.71 102.825L307.701 102.839ZM297.909 136.992V176.023C302.721 171.414 306.786 166.14 309.714 160.112C313.234 152.853 314.845 144.992 314.976 136.987L297.909 136.992ZM297.909 84.8791V95.1354H304.032C302.18 91.6047 300.139 88.1763 297.918 84.8649L297.909 84.8791ZM239.188 38.5549C238.737 38.384 238.287 38.2102 237.834 38.0421C233.053 36.2778 228.169 34.8107 223.207 33.649L206.566 51.9023L206.246 52.2414L206.46 52.475H265.689C257.44 46.8 248.547 42.1225 239.196 38.5407L239.188 38.5549ZM267.425 53.7029H205.633L204.419 54.814V95.1325H215.063H215.08H291.017V75.6029C284.147 67.2998 276.219 59.9323 267.434 53.6886L267.425 53.7029Z" fill="#7771E6"/>
<path opacity="0.1" d="M32.8744 74.5947V95.1329H4.03516C4.03516 95.0133 4.05511 94.8908 4.06366 94.7711C4.08932 94.4435 4.11497 94.1158 4.14348 93.7911C4.17483 93.4093 4.20904 93.0247 4.2461 92.6515C4.28316 92.2783 4.32306 91.8224 4.36582 91.4093C4.40858 90.9962 4.44849 90.5774 4.49695 90.1643C4.54541 89.7512 4.58817 89.3381 4.63948 88.9279C4.69079 88.5176 4.7364 88.1017 4.79056 87.6914C4.83332 87.3495 4.87893 87.0105 4.92453 86.6686C4.9901 86.1872 5.05851 85.7028 5.13263 85.2242C5.13263 85.153 5.15258 85.0789 5.16398 85.0105C5.68427 81.5068 6.39319 78.0336 7.28766 74.6061L32.8744 74.5947Z" fill="#7771E6"/>
<path opacity="0.1" d="M3.94448 96.3521H32.875V135.762H6.06246C5.9912 136.166 5.92278 136.574 5.84867 136.981H32.875V168.764C32.8265 168.75 32.7838 168.733 32.7381 168.716C31.9742 168.414 31.2159 168.095 30.4577 167.753L29.9731 167.533C29.2129 167.175 28.4528 166.795 27.6926 166.394C27.4275 166.254 27.1624 166.109 26.9002 165.961C22.6801 163.598 18.8464 160.605 15.5321 157.083C15.4352 156.989 15.3439 156.89 15.247 156.799C14.7852 156.297 14.332 155.79 13.893 155.272L13.4084 154.702C12.8896 154.066 12.3879 153.414 11.9004 152.753C11.8292 152.656 11.7608 152.559 11.6866 152.468C9.7042 149.721 8.05815 146.746 6.78366 143.608C6.74375 143.514 6.70954 143.411 6.67248 143.323C6.281 142.316 5.93418 141.3 5.63202 140.275C5.5009 139.844 5.37547 139.42 5.26715 138.973C5.22724 138.842 5.19303 138.713 5.16168 138.585C3.54255 132.269 3.35156 125.708 3.35156 119.192C3.35156 118.432 3.35156 117.668 3.35156 116.913C3.35156 114.278 3.38292 111.625 3.42853 108.976C3.42853 108.289 3.45703 107.605 3.47129 106.916C3.51119 105.167 3.56821 103.417 3.64232 101.668C3.65942 101.181 3.68223 100.697 3.70788 100.212C3.70788 99.9332 3.72214 99.654 3.75064 99.3748C3.81906 98.3606 3.87607 97.3549 3.94448 96.3521Z" fill="#7771E6"/>
<path opacity="0.1" d="M61.534 59.6232V95.1328H39.7812V59.6232H42.8827V47.6006H55.6133V59.6232H61.534Z" fill="#7771E6"/>
<path opacity="0.1" d="M61.535 96.3491H39.7852V135.759H61.535V96.3491Z" fill="#7771E6"/>
<path opacity="0.1" d="M39.7812 136.981H61.534V169.744C58.968 170.481 56.3533 171.036 53.7092 171.405L53.0592 171.485C52.74 171.522 52.4236 171.553 52.11 171.585C51.7964 171.616 51.4715 171.639 51.155 171.659H51.0553C50.9184 171.659 50.7702 171.676 50.6362 171.679H50.4909C50.3198 171.679 50.1488 171.696 49.9778 171.701C49.7355 171.716 49.4932 171.718 49.2452 171.721C49.1397 171.721 49.0399 171.721 48.9344 171.721C48.6893 171.721 48.447 171.721 48.2018 171.721H47.6631C47.5177 171.721 47.378 171.721 47.227 171.721L46.6768 171.701C46.3917 171.701 46.0839 171.67 45.7874 171.65L45.2401 171.61L44.5588 171.547C44.0799 171.505 43.6039 171.451 43.1335 171.385L42.5634 171.305L42.2784 171.265C41.8023 171.191 41.332 171.112 40.8531 171.02C40.5024 170.961 40.1547 170.887 39.8012 170.815L39.7812 136.981Z" fill="#7771E6"/>
<path opacity="0.1" d="M197.51 55.4297H179.574V95.13H197.51V55.4297Z" fill="#7771E6"/>
<path opacity="0.1" d="M197.515 96.3491V135.762H108.488V118.762H155.908V128.79H179.576V96.3491H197.515Z" fill="#7771E6"/>
<path opacity="0.1" d="M197.797 179.237H197.512V205.091C194.3 204.82 191.098 204.45 187.905 203.983C173.532 201.88 159.52 197.794 146.27 191.841C142.444 190.12 138.697 188.242 135.027 186.206C128.897 182.812 123.025 178.973 117.456 174.721C116.058 173.65 114.677 172.554 113.314 171.434C112.371 170.656 111.433 169.858 110.484 169.083C109.825 168.551 109.161 168.026 108.488 167.525V136.981H179.339C179.291 136.799 179.242 136.616 179.191 136.437C179.245 136.616 179.297 136.799 179.345 136.981H197.512V179.22C197.609 179.223 197.703 179.231 197.797 179.237Z" fill="#7771E6"/>
<path opacity="0.1" d="M244.289 52.4722H232.602V48.8426H237.841V38.0308C238.295 38.196 238.747 38.366 239.198 38.5407V48.8426H244.289V52.4722Z" fill="#7771E6"/>
<path opacity="0.1" d="M272.448 95.1325H215.072C215.072 95.1325 215.072 95.1325 215.092 95.1467L215.066 95.1325H204.422V55.4321H207.438V84.7765H221.22V67.3978H232.606V53.6914H244.293V67.4092H255.678V84.7879H272.448V95.1325Z" fill="#7771E6"/>
<path opacity="0.1" d="M204.422 96.3491V135.762H272.448V96.3491H204.422ZM290.914 182.154L291.008 150.958H272.448V136.998H204.422V205.516C209.999 205.75 215.585 205.683 221.155 205.316H221.252C223.912 205.149 226.56 204.906 229.196 204.587H229.256C243.318 202.951 257.068 199.285 270.076 193.701" fill="#7771E6"/>
<path opacity="0.1" d="M299.119 136.981H314.988C314.849 144.984 313.241 152.844 309.723 160.103C306.796 166.134 302.728 171.408 297.922 176.015V150.944H299.119V136.981Z" fill="#7771E6"/>
<path opacity="0.1" d="M314.999 135.762H299.121V102.825H307.713C312.16 113.209 314.985 124.605 314.999 135.762Z" fill="#7771E6"/>
<path opacity="0.1" d="M197.512 66.4663H187.902V78.9134H197.512V66.4663Z" fill="#7771E6"/>
<path opacity="0.1" d="M197.512 92.2666H187.902V95.1327H197.512V92.2666Z" fill="#7771E6"/>
<path opacity="0.1" d="M197.512 96.3491H187.902V104.711H197.512V96.3491Z" fill="#7771E6"/>
<path opacity="0.1" d="M197.512 118.067H187.902V130.514H197.512V118.067Z" fill="#7771E6"/>
<path opacity="0.1" d="M197.512 143.867H187.902V156.314H197.512V143.867Z" fill="#7771E6"/>
<path opacity="0.1" d="M197.509 179.22C197.606 179.22 197.7 179.22 197.794 179.237H197.509V182.129H187.902V169.667H197.509V179.22Z" fill="#7771E6"/>
<path opacity="0.1" d="M197.509 195.462V205.077C194.297 204.806 191.095 204.436 187.902 203.969V195.462H197.509Z" fill="#7771E6"/>
<path opacity="0.1" d="M149.671 134.847H108.488V135.762H149.671V134.847Z" fill="#7771E6"/>
<path opacity="0.1" d="M149.671 136.979H108.488V140.483H149.671V136.979Z" fill="#7771E6"/>
<path opacity="0.1" d="M149.671 151.97H108.488V157.605H149.671V151.97Z" fill="#7771E6"/>
<path opacity="0.1" d="M149.667 169.092V174.727H117.456C116.057 173.66 114.676 172.564 113.311 171.439C112.368 170.662 111.433 169.864 110.48 169.092H149.667Z" fill="#7771E6"/>
<path opacity="0.1" d="M149.668 186.211V191.841H146.267C142.445 190.118 138.699 188.239 135.027 186.203L149.668 186.211Z" fill="#7771E6"/>
<path opacity="0.1" d="M229.263 100.169H221.156V108.272H229.263V100.169Z" fill="#7771E6"/>
<path opacity="0.1" d="M53.732 62.418H45.625V70.5204H53.732V62.418Z" fill="#7771E6"/>
<path opacity="0.1" d="M53.732 81.2383H45.625V89.3407H53.732V81.2383Z" fill="#7771E6"/>
<path opacity="0.1" d="M53.732 100.059H45.625V108.161H53.732V100.059Z" fill="#7771E6"/>
<path opacity="0.1" d="M53.732 118.876H45.625V126.978H53.732V118.876Z" fill="#7771E6"/>
<path opacity="0.1" d="M53.732 137.696H45.625V145.799H53.732V137.696Z" fill="#7771E6"/>
<path opacity="0.1" d="M53.732 156.517H45.625V164.619H53.732V156.517Z" fill="#7771E6"/>
<path opacity="0.1" d="M260.213 100.169H252.105V108.272H260.213V100.169Z" fill="#7771E6"/>
<path opacity="0.1" d="M229.263 120.155H221.156V128.258H229.263V120.155Z" fill="#7771E6"/>
<path opacity="0.1" d="M260.213 120.155H252.105V128.258H260.213V120.155Z" fill="#7771E6"/>
<path opacity="0.1" d="M229.263 140.138H221.156V148.24H229.263V140.138Z" fill="#7771E6"/>
<path opacity="0.1" d="M260.213 140.138H252.105V148.24H260.213V140.138Z" fill="#7771E6"/>
<path opacity="0.1" d="M229.263 160.124H221.156V168.226H229.263V160.124Z" fill="#7771E6"/>
<path opacity="0.1" d="M260.213 160.124H252.105V168.226H260.213V160.124Z" fill="#7771E6"/>
<path opacity="0.1" d="M229.263 180.109H221.156V188.211H229.263V180.109Z" fill="#7771E6"/>
<path opacity="0.1" d="M260.213 180.109H252.105V188.211H260.213V180.109Z" fill="#7771E6"/>
<path opacity="0.1" d="M221.156 205.316V200.091H229.26V204.573L221.156 205.316Z" fill="#7771E6"/>
<path opacity="0.1" d="M5.13281 85.0044V89.6397H32.8775V85.0044H5.13281ZM7.89787 89.3491H5.63451V85.2893H7.91497L7.89787 89.3491ZM10.6601 89.3491H8.37962V85.2893H10.6601V89.3491ZM13.4166 89.3491H11.1361V85.2893H13.4166V89.3491ZM16.1788 89.3491H13.9012V85.2893H16.1816L16.1788 89.3491ZM18.9382 89.3491H16.6577V85.2893H18.9382V89.3491ZM21.7004 89.3491H19.4199V85.2893H21.7004V89.3491ZM24.4626 89.3491H22.1821V85.2893H24.4626V89.3491ZM27.2219 89.3491H24.9415V85.2893H27.2219V89.3491ZM29.9813 89.3491H27.7008V85.2893H29.9813V89.3491ZM32.7406 89.3491H30.4602V85.2893H32.7406V89.3491Z" fill="#7771E6"/>
<path opacity="0.1" d="M5.13281 98.4917V103.127H32.8775V98.4917H5.13281ZM7.89787 102.834H5.63451V98.7851H7.91497L7.89787 102.834ZM10.6601 102.834H8.37962V98.7851H10.6601V102.834ZM13.4166 102.834H11.1361V98.7851H13.4166V102.834ZM16.1788 102.834H13.9012V98.7851H16.1816L16.1788 102.834ZM18.9382 102.834H16.6577V98.7851H18.9382V102.834ZM21.7004 102.834H19.4199V98.7851H21.7004V102.834ZM24.4626 102.834H22.1821V98.7851H24.4626V102.834ZM27.2219 102.834H24.9415V98.7851H27.2219V102.834ZM29.9813 102.834H27.7008V98.7851H29.9813V102.834ZM32.7406 102.834H30.4602V98.7851H32.7406V102.834Z" fill="#7771E6"/>
<path opacity="0.1" d="M5.13281 111.984V116.628H32.8775V111.984H5.13281ZM7.89787 116.326H5.63451V112.275H7.91497L7.89787 116.326ZM10.6601 116.326H8.37962V112.275H10.6601V116.326ZM13.4166 116.326H11.1361V112.275H13.4166V116.326ZM16.1788 116.326H13.9012V112.275H16.1816L16.1788 116.326ZM18.9382 116.326H16.6577V112.275H18.9382V116.326ZM21.7004 116.326H19.4199V112.275H21.7004V116.326ZM24.4626 116.326H22.1821V112.275H24.4626V116.326ZM27.2219 116.326H24.9415V112.275H27.2219V116.326ZM29.9813 116.326H27.7008V112.275H29.9813V116.326ZM32.7406 116.326H30.4602V112.275H32.7406V116.326Z" fill="#7771E6"/>
<path opacity="0.1" d="M5.13281 125.477V130.107H32.8775V125.477H5.13281ZM7.89787 129.819H5.63451V125.765H7.91497L7.89787 129.819ZM10.6601 129.819H8.37962V125.765H10.6601V129.819ZM13.4166 129.819H11.1361V125.765H13.4166V129.819ZM16.1788 129.819H13.9012V125.765H16.1816L16.1788 129.819ZM18.9382 129.819H16.6577V125.765H18.9382V129.819ZM21.7004 129.819H19.4199V125.765H21.7004V129.819ZM24.4626 129.819H22.1821V125.765H24.4626V129.819ZM27.2219 129.819H24.9415V125.765H27.2219V129.819ZM29.9813 129.819H27.7008V125.765H29.9813V129.819ZM32.7406 129.819H30.4602V125.765H32.7406V129.819Z" fill="#7771E6"/>
<path opacity="0.1" d="M5.25 138.967C5.36117 139.403 5.4866 139.839 5.61772 140.269V139.257H7.89818V143.309H6.67814C6.71519 143.403 6.75225 143.505 6.78931 143.594H32.8749V138.967H5.25ZM10.6661 143.309H8.38563V139.257H10.6661V143.309ZM13.4226 143.309H11.1421V139.257H13.4226V143.309ZM16.1848 143.309H13.8986V139.257H16.1791L16.1848 143.309ZM18.9442 143.309H16.6637V139.257H18.9442V143.309ZM21.7064 143.309H19.4259V139.257H21.7064V143.309ZM24.4686 143.309H22.1881V139.257H24.4686V143.309ZM27.2279 143.309H24.9475V139.257H27.2279V143.309ZM29.9873 143.309H27.7068V139.257H29.9873V143.309ZM32.7466 143.309H30.4662V139.257H32.7466V143.309Z" fill="#7771E6"/>
<path opacity="0.1" d="M11.6914 152.459C11.7627 152.551 11.8311 152.653 11.9052 152.744H13.4132V154.69C13.5756 154.884 13.7353 155.078 13.9006 155.26V152.733H16.1811V156.798H15.2575C15.3487 156.892 15.4371 156.992 15.5425 157.083H32.8826V152.459H11.6914ZM18.9347 156.798H16.6543V152.75H18.9347V156.798ZM21.6969 156.798H19.4165V152.75H21.6969V156.798ZM24.4591 156.798H22.1787V152.75H24.4591V156.798ZM27.2185 156.798H24.938V152.75H27.2185V156.798ZM29.9778 156.798H27.6974V152.75H29.9778V156.798ZM32.7372 156.798H30.4567V152.75H32.7372V156.798Z" fill="#7771E6"/>
<path opacity="0.1" d="M26.9141 165.949C27.1735 166.097 27.4386 166.234 27.7065 166.382V166.24H29.987V167.522L30.4716 167.747V166.24H32.752V168.704C32.7958 168.726 32.8416 168.743 32.8889 168.755V165.949H26.9141Z" fill="#7771E6"/>
<path opacity="0.1" d="M179.189 136.434C179.243 136.617 179.289 136.799 179.34 136.978C179.295 136.799 179.246 136.617 179.189 136.434ZM42.8945 52.4639V53.6804H55.6281V52.4639H42.8945ZM179.189 136.434C179.243 136.617 179.289 136.799 179.34 136.978C179.295 136.799 179.246 136.617 179.189 136.434ZM179.189 136.434C179.243 136.617 179.289 136.799 179.34 136.978C179.295 136.799 179.246 136.617 179.189 136.434Z" fill="#7771E6"/>
<path d="M131.581 108.167C131.581 108.167 130.458 108.01 130.458 106.375C130.458 104.739 129.654 101.685 129.654 101.685C129.654 101.671 128.958 96.3663 127.998 95.523C127.037 94.6797 125.803 89.7282 125.803 89.7282C125.803 89.7282 125.592 87.0416 125.161 86.4633C124.731 85.8849 124.149 84.469 123.291 82.4491C122.433 80.4291 118.856 79.0303 118.856 79.0303C118.856 79.0303 112.388 75.2811 110.555 74.0589C110.388 73.9584 110.233 73.841 110.09 73.7084C109.771 73.2896 108.38 73.2811 108.38 73.2811C108.235 72.3637 108.095 71.3096 108.049 70.3552C108.049 70.2526 108.049 70.1501 108.035 70.0475C110.079 68.8401 111.618 66.9363 112.371 64.6858C112.405 64.5775 112.433 64.4635 112.465 64.3553C112.587 64.315 112.7 64.2495 112.796 64.1632C112.891 64.0769 112.968 63.9715 113.021 63.8539C113.186 63.4863 113.189 63.0561 113.394 62.7143C113.634 62.3097 114.09 62.0932 114.449 61.7884C115.355 61.0191 115.589 59.7229 115.546 58.5434C115.518 57.589 115.364 56.626 115.424 55.6773L115.441 55.438C115.458 55.2956 115.478 55.1531 115.504 55.0164C115.643 54.3098 115.948 53.6432 116.119 52.9423C116.29 52.2415 116.307 51.4523 115.908 50.8483C115.324 49.9623 114.107 49.7857 113.038 49.6945C111.826 49.5919 110.743 49.7258 109.968 48.7201C109.605 48.1945 109.197 47.7017 108.748 47.2472C108.588 47.0991 107.037 46.1532 107.037 46.0906C105.524 45.39 103.808 45.2585 102.206 45.7202C101.402 45.9538 100.643 46.3356 99.8282 46.5264C98.0694 46.9424 96.0455 46.4923 94.5518 47.4979C93.7194 48.0677 93.2206 48.9737 92.7531 49.8569C92.373 50.5843 91.9872 51.3108 91.5957 52.0363C90.9658 53.2301 90.3244 54.4437 90.0593 55.7656C90.0035 56.0533 89.9692 56.3447 89.9567 56.6374V56.6517C89.9567 56.7571 89.9567 56.8625 89.9567 56.9679V57.1018C89.9567 57.2015 89.9567 57.2984 89.9738 57.3867C89.9909 57.475 89.988 57.5035 89.9966 57.5633C90.0051 57.6232 90.0194 57.7571 90.0365 57.8482C90.0536 57.9394 90.0878 58.0989 90.122 58.2243C90.1362 58.2784 90.1562 58.3297 90.1733 58.381C90.2018 58.4779 90.236 58.5719 90.2731 58.6659C90.293 58.7143 90.313 58.7656 90.3358 58.814C90.3785 58.9138 90.4298 59.0106 90.4812 59.0989C90.504 59.1388 90.5211 59.1759 90.5439 59.2129C90.6234 59.3454 90.711 59.4729 90.8061 59.5947C91.4161 60.3553 92.3141 60.8396 92.9783 61.5519C92.9783 61.5804 92.9783 61.6089 92.9783 61.6345C92.9783 61.7143 92.9783 61.7912 92.9783 61.871C93.0135 63.4594 93.4365 65.0152 94.2105 66.403C94.9846 67.7908 96.0861 68.9686 97.4195 69.8338C97.4195 69.9421 97.4337 70.0532 97.4394 70.1615C97.495 71.0071 97.4845 71.8559 97.4081 72.6999C97.292 72.5633 97.1467 72.4544 96.9829 72.3815C96.8191 72.3085 96.6409 72.2732 96.4617 72.2782C96.3392 72.2723 96.2164 72.2828 96.0968 72.3096L96.0711 72.2896V72.3153C95.444 72.4691 94.6715 73.1215 93.9332 74.9762C93.9332 74.9762 91.687 77.5061 89.9766 77.4007C88.2663 77.2953 83.9362 80.0331 83.9362 80.0331C83.9362 80.0331 79.7117 82.7738 78.8052 85.5658C78.2985 87.149 77.6911 88.6982 76.9865 90.2039L71.7643 100.959L70.8008 109.491C70.8008 109.491 71.3338 113.286 71.2284 113.865C71.1229 114.443 73.4205 119.659 73.4205 119.659C73.4205 119.659 81.0115 132.99 84.113 133.673L84.3353 133.517C84.468 133.586 84.6088 133.639 84.7544 133.673L85.3929 133.223C85.4312 133.725 85.415 134.229 85.3444 134.728C84.9168 136.044 85.5041 144.633 86.2509 146.317C86.9978 148.001 86.7327 170.078 86.7327 170.078L86.6272 172.026C86.6272 172.026 86.6272 172.089 86.6528 172.197L86.6272 172.659L86.7041 172.699C86.7841 173.317 86.758 173.944 86.6272 174.553C86.3592 175.408 86.2509 177.824 86.2509 177.824C86.2509 177.824 84.1158 191.465 85.1278 194.205C86.1397 196.946 87.0006 199.949 87.0006 199.949C87.0006 199.949 88.0696 203.368 87.0519 203.952C86.0343 204.536 83.1409 205.516 83.7367 206.94C84.2783 208.257 86.3336 211.784 86.6386 212.299L86.6129 212.57L86.1939 217.108C86.2617 217.708 86.4243 218.292 86.6756 218.84C87.1346 219.829 88.0268 220.855 89.7229 220.744C90.008 220.724 90.3386 220.689 90.6579 220.647C93.7622 220.231 97.5848 218.846 97.5848 218.846C97.3863 218.72 97.2044 218.57 97.0432 218.399C96.8906 218.251 96.7697 218.074 96.6879 217.878C96.606 217.682 96.5649 217.472 96.5671 217.259C96.6127 216.433 95.0649 212.496 94.6801 211.527C94.6202 211.388 94.5888 211.308 94.5888 211.308C94.5888 211.308 98.1179 207.621 97.5306 204.353C97.5306 204.353 93.6253 202.074 94.911 200.824C96.1966 199.573 98.4941 195.98 98.4941 195.98C98.4941 195.98 98.5996 182.548 98.4941 180.542C98.3841 179.15 98.4502 177.749 98.6908 176.374C98.7336 176.166 98.7849 175.964 98.839 175.764C100.617 176.029 102.412 176.166 104.21 176.172C104.865 176.172 105.532 176.172 106.205 176.132C106.205 176.322 106.213 176.527 106.231 176.747C106.379 180.075 106.655 185.909 106.881 188.077C107.2 191.186 108.964 199.562 108.964 199.562C108.964 199.562 105.598 201.721 109.552 207.043C109.552 207.043 109.552 208.972 109.289 209.251C109.009 210.164 108.784 211.092 108.614 212.031C108.448 213.034 108.38 214.049 108.648 214.576C109.289 215.835 113.138 215.732 113.138 215.732L113.232 215.715C113.958 215.64 114.692 215.71 115.392 215.921C116.091 216.132 116.741 216.479 117.305 216.943C118.767 218.117 124.317 217.601 127.322 217.228C128.499 217.08 129.286 216.943 129.286 216.943C129.324 216.81 129.338 216.671 129.326 216.533C129.295 215.795 128.716 214.177 124.794 212.732C124.794 212.732 121.105 210.254 121.156 208.094H121.079H120.652C120.962 208.077 121.162 208.094 121.162 208.094C121.162 208.094 119.717 202.824 120.307 202.396C120.897 201.969 119.129 196.129 119.129 196.129C119.129 196.129 118.117 186.328 118.063 185.641C118.066 185.052 118.155 184.467 118.328 183.904L118.063 178.53C118.063 178.53 118.012 176.744 118.063 176.163C118.055 175.658 118.014 175.155 117.941 174.656C117.915 174.456 117.889 174.248 117.861 174.043C119.243 173.693 120.141 173.368 120.141 173.368L119.982 154.665C121.156 152.385 121.373 147.386 121.367 143.839C121.367 141.559 121.265 139.873 121.265 139.873L122.869 137.255C122.869 137.255 123.24 134.121 122.653 133.434C122.393 133.124 122.51 132.802 122.724 132.537C122.835 132.449 122.952 132.369 123.075 132.297C123.075 132.297 123.058 132.272 123.038 132.235C123.15 132.141 123.269 132.056 123.394 131.981C123.394 131.981 122.824 131.098 123.334 130.725C123.813 131.05 124.241 131.295 124.565 131.494C124.543 131.702 124.52 131.822 124.52 131.822L124.657 131.537C124.97 131.713 125.161 131.822 125.161 131.822C125.161 131.822 127.675 126.816 127.621 126.078C127.567 125.34 129.332 122.232 129.332 122.232C129.332 122.232 129.545 120.6 130.509 119.916C131.472 119.232 131.256 114.278 131.256 114.278C131.256 114.278 131.524 111.697 132.165 110.642C132.807 109.588 131.581 108.167 131.581 108.167ZM83.4744 105.97L83.5229 107.164C83.2378 106.705 83.0326 106.375 83.0326 106.375L83.4744 105.97Z" fill="url(#paint0_linear_99_1070)"/>
<path d="M125.3 129.66L124.684 132.281C124.684 132.281 119.753 129.765 118.863 126.568C117.974 123.372 120.351 122.158 120.351 122.158L124.946 124.104L125.3 129.66Z" fill="white"/>
<path opacity="0.1" d="M125.3 129.66L124.684 132.281C124.684 132.281 119.753 129.765 118.863 126.568C117.974 123.372 120.351 122.158 120.351 122.158L124.946 124.104L125.3 129.66Z" fill="black"/>
<path d="M97.622 218.863C97.622 218.863 93.0611 220.538 89.9254 220.749C88.2607 220.86 87.3856 219.84 86.9352 218.857C86.6891 218.311 86.5304 217.729 86.4648 217.134L86.8725 212.618L87.0891 210.214L93.7509 208.484L94.6945 211.368L94.7828 211.587C95.1619 212.55 96.6813 216.467 96.6357 217.285C96.6338 217.494 96.6743 217.702 96.7546 217.895C96.8349 218.089 96.9535 218.264 97.1032 218.41C97.2562 218.583 97.4305 218.735 97.622 218.863Z" fill="white"/>
<path d="M128.779 216.567C128.79 216.704 128.777 216.842 128.739 216.975C128.739 216.975 118.984 218.601 116.989 216.975C116.426 216.499 115.771 216.147 115.064 215.94C114.357 215.733 113.614 215.676 112.884 215.772C112.884 215.772 109.11 215.875 108.48 214.633C108.218 214.111 108.286 213.1 108.449 212.103C108.614 211.169 108.835 210.245 109.11 209.337L109.261 209.217L110.159 208.496L120.672 208.186H120.752C120.7 210.334 124.321 212.798 124.321 212.798C128.166 214.223 128.733 215.832 128.779 216.567Z" fill="white"/>
<path opacity="0.1" d="M128.777 216.567C128.787 216.704 128.773 216.842 128.735 216.974C128.735 216.974 118.983 218.601 116.987 216.974C116.425 216.499 115.77 216.147 115.063 215.94C114.357 215.733 113.615 215.676 112.885 215.772C112.885 215.772 109.108 215.875 108.481 214.632C108.219 214.108 108.285 213.1 108.447 212.103C109.901 212.248 112.196 212.61 113.096 213.473C114.459 214.786 116.768 216.097 118.185 216.199C119.294 216.271 125.927 216.481 128.777 216.567Z" fill="black"/>
<path opacity="0.1" d="M97.6254 218.864C97.6254 218.864 93.0644 220.539 89.9288 220.75C88.2641 220.861 87.3889 219.841 86.9414 218.855C88.1016 219.245 89.7122 219.656 90.5588 219.279C91.5622 218.835 95.1197 218.547 97.1151 218.425C97.267 218.591 97.4383 218.738 97.6254 218.864Z" fill="black"/>
<path d="M104.392 83.8648C100.629 82.4033 95.7889 77.5743 96.9975 75.3179C97.266 74.7485 97.4255 74.134 97.4679 73.506C97.5456 72.6534 97.5571 71.7962 97.5021 70.9419C97.4173 69.5428 97.2489 68.15 96.9975 66.771C96.9975 66.771 108.745 67.0359 108.061 68.7653C107.861 69.2724 107.83 70.1527 107.884 71.1385C107.938 72.1242 108.081 73.2382 108.229 74.1812C108.434 75.4746 108.639 76.4603 108.639 76.4603C108.639 76.4603 107.921 77.466 107.499 77.5201C107.077 77.5743 109.791 85.9474 104.392 83.8648Z" fill="#CF6F80"/>
<path opacity="0.1" d="M94.7775 211.587L94.6892 211.684C91.1773 207.439 86.9299 212.729 86.9299 212.729L86.8672 212.618L87.0838 210.214L93.7456 208.484L94.6892 211.368L94.7775 211.587Z" fill="black"/>
<path opacity="0.1" d="M120.753 208.484C120.753 208.484 118.187 208.43 116.819 209.638C115.451 210.846 108.837 209.9 109.122 209.638C109.207 209.508 109.258 209.36 109.27 209.205L110.168 208.484L120.681 208.174C120.721 208.365 120.753 208.484 120.753 208.484Z" fill="black"/>
<path d="M99.1466 175.149C98.9555 175.621 98.8104 176.11 98.7133 176.61C98.4756 177.979 98.4095 179.373 98.5166 180.758C98.6221 182.753 98.5166 196.117 98.5166 196.117C98.5166 196.117 96.2618 199.681 95.0047 200.938C93.7476 202.194 97.5702 204.45 97.5702 204.45C98.1403 207.698 94.6854 211.368 94.6854 211.368C91.1735 207.123 86.9261 212.416 86.9261 212.416C86.9261 212.416 84.6172 208.427 84.0414 207.003C83.4655 205.578 86.2962 204.593 87.291 204.014C88.2859 203.436 87.2426 200.026 87.2426 200.026C87.2426 200.026 86.4016 197.037 85.4039 194.311C84.4062 191.584 86.5043 178.012 86.5043 178.012C86.5043 178.012 86.6126 175.602 86.872 174.761C87.0029 174.155 87.0289 173.53 86.949 172.915C86.9319 172.707 86.9119 172.533 86.8976 172.417C86.8834 172.3 86.872 172.246 86.872 172.246L86.9119 172.177L88.3372 169.522C88.3372 169.522 99.8307 173.476 99.1466 175.149Z" fill="#7771E6"/>
<path d="M120.752 208.171C120.752 208.171 118.186 208.117 116.818 209.311C115.45 210.505 108.836 209.573 109.121 209.311C109.406 209.049 109.384 207.109 109.384 207.109C105.504 201.815 108.813 199.667 108.813 199.667C108.813 199.667 107.08 191.334 106.767 188.243C106.547 186.083 106.276 180.28 106.131 176.967C106.068 175.542 106.031 174.562 106.031 174.562L109.201 173.924L109.609 173.841L117.254 172.309C117.254 172.309 117.465 173.733 117.607 174.898C117.679 175.396 117.718 175.897 117.727 176.4C117.676 176.969 117.727 178.753 117.727 178.753L117.987 184.1C117.817 184.661 117.73 185.244 117.727 185.83C117.778 186.511 118.773 196.26 118.773 196.26C118.773 196.26 120.504 202.077 119.914 202.496C119.323 202.915 120.752 208.171 120.752 208.171Z" fill="#7771E6"/>
<path opacity="0.1" d="M108.059 68.7653C107.86 69.2724 107.828 70.1527 107.882 71.1385C106.309 72.0855 104.5 72.5696 102.664 72.5354C100.827 72.5011 99.0377 71.9498 97.5006 70.9447C97.416 69.5447 97.2475 68.1509 96.9961 66.771C96.9961 66.771 108.743 67.0303 108.059 68.7653Z" fill="black"/>
<path d="M112.599 62.4695C112.601 63.4962 112.439 64.5166 112.12 65.4923C111.406 67.6785 109.941 69.542 107.985 70.7534C106.029 71.9648 103.708 72.4462 101.431 72.1124C99.1545 71.7786 97.0692 70.6512 95.5438 68.9294C94.0183 67.2076 93.151 65.0022 93.0952 62.7031C93.0952 62.6234 93.0952 62.5493 93.0952 62.4695C93.073 61.1754 93.309 59.8898 93.7892 58.6878C94.2694 57.4858 94.9843 56.3913 95.8921 55.4683C96.8 54.5453 97.8827 53.8123 99.077 53.3118C100.271 52.8114 101.553 52.5537 102.848 52.5537C104.143 52.5537 105.426 52.8114 106.62 53.3118C107.814 53.8123 108.897 54.5453 109.805 55.4683C110.713 56.3913 111.427 57.4858 111.908 58.6878C112.388 59.8898 112.624 61.1754 112.602 62.4695H112.599Z" fill="#CF6F80"/>
<path opacity="0.1" d="M104.392 83.8652C100.629 82.4037 95.7889 77.5747 96.9975 75.3183C97.266 74.7489 97.4255 74.1344 97.4679 73.5063L102.619 77.7371L105.806 80.3496L108.229 74.1844C108.434 75.4778 108.639 76.4636 108.639 76.4636C108.639 76.4636 107.921 77.4693 107.499 77.5234C107.077 77.5775 109.791 85.9478 104.392 83.8652Z" fill="black"/>
<path d="M117.711 102.563L113.41 174.784L107.8 175.152L93.2734 133.275L95.6565 83.5574L96.1582 73.0532L102.618 78.3551L105.807 80.9677L108.302 74.623L112.94 78.6628L117.711 102.563Z" fill="#7771E6"/>
<path opacity="0.1" d="M99.1467 175.149C98.9556 175.621 98.8106 176.11 98.7134 176.61C94.6314 175.98 90.6668 174.743 86.952 172.938L86.875 172.898L86.9007 172.439L86.9149 172.2L88.3402 169.545C88.3402 169.545 99.8309 173.476 99.1467 175.149Z" fill="black"/>
<path opacity="0.1" d="M109.268 176.622C108.225 176.799 107.172 176.919 106.115 176.981C106.053 175.556 106.016 174.576 106.016 174.576L109.185 173.938L109.268 176.622Z" fill="black"/>
<path opacity="0.1" d="M117.592 174.912C115.566 175.44 112.436 176.032 109.634 175.662L109.594 173.855L117.239 172.323C117.239 172.323 117.45 173.733 117.592 174.912Z" fill="black"/>
<path opacity="0.1" d="M109.582 175.992C97.8943 177.986 87.1904 172.268 87.1904 172.268L87.293 170.331C87.293 170.331 87.5581 148.368 86.8227 146.685C86.0872 145.001 85.5142 136.463 85.9304 135.152C86.3466 133.842 84.4111 114.189 84.4111 114.189L84.0975 106.212L72.6211 101.566L77.7521 90.8763C78.4452 89.3777 79.0412 87.8361 79.5366 86.261C80.4288 83.4861 84.5707 80.7597 84.5707 80.7597C84.5707 80.7597 88.8181 78.0361 90.497 78.1386C92.176 78.2412 94.3767 75.7284 94.3767 75.7284C96.0015 71.5888 97.4724 73.4635 97.4724 73.4635C97.4724 73.66 97.4724 73.4635 97.3926 74.076C96.8225 78.6201 106.611 92.9789 106.751 93.2324L107.683 115.927L108.627 144.648L109.582 175.992Z" fill="black"/>
<path d="M109.27 175.992C97.5825 177.986 86.8758 172.268 86.8758 172.268L86.9812 170.331C86.9812 170.331 87.2463 148.368 86.508 146.685C85.7697 145.001 85.1996 136.463 85.6187 135.152C86.0377 133.842 84.0993 114.189 84.0993 114.189L83.7829 106.212L72.3008 101.549L77.4318 90.8593C78.1233 89.3599 78.7194 87.8184 79.2163 86.2439C80.1057 83.469 84.2504 80.7426 84.2504 80.7426C84.2504 80.7426 88.4978 78.019 90.1739 78.1215C91.85 78.2241 94.0535 75.7113 94.0535 75.7113C95.6812 71.5718 97.4742 73.4464 97.4742 73.4464C97.4742 73.643 97.3032 73.7313 97.3944 74.0589C98.6486 78.4663 106.3 92.9618 106.439 93.2154L107.383 115.91L108.326 144.631L109.27 175.992Z" fill="white"/>
<path opacity="0.1" d="M106.118 93.8618C104.861 93.3376 98.2021 85.7394 98.2021 85.7394V84.0101C97.9598 83.4403 96.5203 83.7879 95.3516 84.1868L95.8533 73.6826L96.4234 74.1555C97.6719 78.56 105.973 93.6083 106.118 93.8618Z" fill="black"/>
<path d="M106.434 93.2325C105.174 92.7082 98.5146 85.1101 98.5146 85.1101V83.3807C98.2723 82.8109 96.8328 83.1585 95.6641 83.5574L96.1686 73.0532L96.7387 73.5262C97.9901 77.9307 106.294 92.9818 106.434 93.2325Z" fill="white"/>
<path opacity="0.1" d="M87.1922 131.127C87.3489 131.127 95.3192 130.289 95.3192 130.289C95.3192 130.289 100.145 139.773 99.8288 142.081C99.5124 144.389 98.9394 146.431 96.9981 146.069C95.0569 145.708 86.5508 146.354 86.5508 146.354L87.1922 131.127Z" fill="black"/>
<path d="M86.8758 130.497C87.0325 130.497 95.0027 129.659 95.0027 129.659C95.0027 129.659 99.8259 139.146 99.5124 141.451C99.1988 143.756 98.6201 145.801 96.6817 145.44C94.7433 145.078 86.2344 145.725 86.2344 145.725L86.8758 130.497Z" fill="white"/>
<path d="M92.882 126.044C92.882 126.044 100.197 129.973 100.353 131.172C100.51 132.371 96.6305 130.648 95.7924 130.44C95.2408 130.307 94.6793 130.219 94.1134 130.178L88.5234 130.329L92.882 126.044Z" fill="#CF6F80"/>
<path opacity="0.1" d="M104.078 94.3519C104.503 94.3519 104.848 94.0075 104.848 93.5827C104.848 93.1579 104.503 92.8135 104.078 92.8135C103.653 92.8135 103.309 93.1579 103.309 93.5827C103.309 94.0075 103.653 94.3519 104.078 94.3519Z" fill="black"/>
<path d="M104.078 94.0384C104.503 94.0384 104.848 93.6941 104.848 93.2692C104.848 92.8444 104.503 92.5 104.078 92.5C103.653 92.5 103.309 92.8444 103.309 93.2692C103.309 93.6941 103.653 94.0384 104.078 94.0384Z" fill="#3F3D56"/>
<path opacity="0.1" d="M105.492 127.651C105.917 127.651 106.262 127.306 106.262 126.882C106.262 126.457 105.917 126.112 105.492 126.112C105.067 126.112 104.723 126.457 104.723 126.882C104.723 127.306 105.067 127.651 105.492 127.651Z" fill="black"/>
<path d="M105.492 127.334C105.917 127.334 106.262 126.99 106.262 126.565C106.262 126.14 105.917 125.796 105.492 125.796C105.067 125.796 104.723 126.14 104.723 126.565C104.723 126.99 105.067 127.334 105.492 127.334Z" fill="#3F3D56"/>
<path opacity="0.1" d="M104.844 111.001C105.269 111.001 105.614 110.657 105.614 110.232C105.614 109.807 105.269 109.463 104.844 109.463C104.419 109.463 104.074 109.807 104.074 110.232C104.074 110.657 104.419 111.001 104.844 111.001Z" fill="black"/>
<path d="M104.844 110.688C105.269 110.688 105.614 110.343 105.614 109.919C105.614 109.494 105.269 109.149 104.844 109.149C104.419 109.149 104.074 109.494 104.074 109.919C104.074 110.343 104.419 110.688 104.844 110.688Z" fill="#3F3D56"/>
<path d="M122.588 130.018C122.588 130.018 123.112 130.805 122.588 131.172C122.063 131.54 122.639 132.428 122.639 132.428C122.639 132.428 121.331 133.195 121.906 133.884C122.482 134.574 122.117 137.688 122.117 137.688L120.544 140.292C120.544 140.292 120.638 141.97 120.644 144.237C120.644 147.776 120.436 152.75 119.284 155.018L119.444 173.625C119.444 173.625 113.933 175.636 109.321 175.023L108.637 145.166C108.637 145.166 109.635 128.235 110.002 124.987C110.218 123.301 110.305 121.601 110.265 119.902C110.265 119.902 110.108 114.819 109.581 112.46C109.581 112.46 109.01 102.241 108.953 99.4118C108.928 98.0585 108.999 94.1099 109.079 90.3549C109.167 86.2496 109.267 82.3778 109.267 82.3778L108.227 74.15C108.227 74.15 109.267 74.0446 109.581 74.4634C109.721 74.5945 109.874 74.7119 110.037 74.8138C111.833 76.0275 118.178 79.7596 118.178 79.7596C118.178 79.7596 121.69 81.1556 122.531 83.1556C123.372 85.1556 123.956 86.5743 124.364 87.1441C124.771 87.7139 124.994 90.392 124.994 90.392C124.994 90.392 126.202 95.3207 127.146 96.1554C128.089 96.9902 128.779 102.301 128.779 102.301L120.441 108.853C120.441 108.853 119.709 119.753 119.552 120.175C119.395 120.597 122.588 130.018 122.588 130.018Z" fill="white"/>
<path d="M122.901 130.018C122.901 130.018 123.422 130.804 122.901 131.172C122.379 131.54 122.949 132.428 122.949 132.428C122.949 132.428 121.649 133.203 122.219 133.893C122.79 134.582 122.43 137.696 122.43 137.696L120.857 140.3C120.857 140.3 120.951 141.978 120.959 144.246C120.959 147.784 120.751 152.759 119.6 155.026L119.757 173.633C119.757 173.633 114.238 175.644 109.631 175.032L108.95 145.175C108.95 145.175 109.948 128.243 110.315 124.995C110.531 123.309 110.618 121.609 110.575 119.91C110.575 119.91 110.418 114.827 109.894 112.469C109.894 112.469 109.323 102.249 109.264 99.4203C109.238 98.067 109.312 94.1183 109.389 90.3634C109.477 86.258 109.577 82.3863 109.577 82.3863L108.203 74.0474C108.203 74.0474 109.577 74.0474 109.894 74.4719C110.033 74.6045 110.186 74.722 110.35 74.8223C112.145 76.0359 118.494 79.7681 118.494 79.7681C118.494 79.7681 122.003 81.1641 122.844 83.1641C123.685 85.164 124.269 86.5828 124.679 87.1526C125.09 87.7224 125.307 90.4004 125.307 90.4004C125.307 90.4004 126.515 95.3291 127.459 96.1639C128.402 96.9986 129.084 102.298 129.084 102.298L120.746 108.85C120.746 108.85 120.013 119.75 119.853 120.172C119.694 120.594 122.901 130.018 122.901 130.018Z" fill="white"/>
<path opacity="0.1" d="M112.915 84.8052L113.668 86.9989L109.705 90.9874C109.794 86.8849 109.894 83.0103 109.894 83.0103L108.52 74.6714C108.52 74.6714 109.894 74.6714 110.21 75.0959C110.349 75.2282 110.502 75.3448 110.666 75.4435L114.035 85.1584L112.915 84.8052Z" fill="black"/>
<path d="M112.599 84.1758L113.354 86.3695L109.392 90.358C109.48 86.2527 109.58 82.3809 109.58 82.3809L108.203 74.042C108.203 74.042 109.58 74.042 109.894 74.4665C110.033 74.5984 110.186 74.7158 110.35 74.8169L113.722 84.529L112.599 84.1758Z" fill="white"/>
<path opacity="0.1" d="M112.599 62.4695C112.601 63.4962 112.439 64.5166 112.12 65.4923C112.066 65.5007 112.011 65.4982 111.958 65.485C111.905 65.4718 111.856 65.4481 111.812 65.4154C111.738 62.8513 110.475 60.4439 108.922 58.3955C108.485 57.777 107.957 57.2293 107.354 56.7716C106.744 56.3141 105.986 56.0998 105.227 56.1705C104.372 56.2873 103.617 56.8685 102.753 56.9425C101.613 57.0365 100.592 56.2474 99.4605 56.2075C99.0005 56.2119 98.5466 56.3142 98.1293 56.5078C97.712 56.7014 97.3407 56.9817 97.0404 57.33C96.4459 58.0329 96.0042 58.8518 95.7434 59.7345C95.2952 61.0731 95.0511 62.4714 95.0193 63.8826C95.0051 64.6803 94.9281 65.6803 94.187 65.9709C94.2427 65.3842 94.176 64.7924 93.991 64.2328C93.8061 63.6733 93.5068 63.1582 93.1123 62.7202L93.0952 62.7031C93.0952 62.6234 93.0952 62.5493 93.0952 62.4695C93.073 61.1754 93.309 59.8898 93.7892 58.6878C94.2694 57.4858 94.9843 56.3913 95.8921 55.4683C96.8 54.5453 97.8827 53.8123 99.077 53.3118C100.271 52.8114 101.553 52.5537 102.848 52.5537C104.143 52.5537 105.426 52.8114 106.62 53.3118C107.814 53.8123 108.897 54.5453 109.805 55.4683C110.713 56.3913 111.427 57.4858 111.908 58.6878C112.388 59.8898 112.624 61.1754 112.602 62.4695H112.599Z" fill="black"/>
<path d="M106.888 46.991C105.406 46.2946 103.721 46.1629 102.15 46.6206C101.36 46.8542 100.616 47.2331 99.8153 47.424C98.1049 47.8371 96.1095 47.3898 94.6415 48.3898C93.8262 48.9596 93.3359 49.8599 92.8798 50.7345L91.7396 52.9054C91.1182 54.0934 90.491 55.3014 90.2316 56.6091C89.9722 57.9167 90.129 59.3811 90.9585 60.4324C91.5628 61.1988 92.4551 61.6802 93.1107 62.401C93.5035 62.8394 93.8014 63.3542 93.9859 63.9131C94.1703 64.472 94.2373 65.0629 94.1825 65.6488C94.9265 65.3639 94.9978 64.3611 95.0149 63.5634C95.0467 62.1522 95.2907 60.7539 95.7389 59.4153C95.9991 58.5323 96.4409 57.7133 97.0359 57.0108C97.3365 56.6627 97.7078 56.3826 98.1251 56.1891C98.5424 55.9956 98.9961 55.893 99.4561 55.8883C100.596 55.9282 101.62 56.7145 102.749 56.6205C103.604 56.5492 104.362 55.9652 105.223 55.8512C105.982 55.7795 106.74 55.9939 107.349 56.4524C107.952 56.9094 108.48 57.4572 108.914 58.0763C110.471 60.1247 111.734 62.5264 111.808 65.0961C112.13 65.3326 112.594 65.0249 112.754 64.6603C112.914 64.2956 112.919 63.8682 113.122 63.5207C113.355 63.119 113.803 62.9053 114.154 62.6033C115.043 61.8369 115.265 60.5463 115.231 59.3754C115.197 58.2045 114.969 57.0165 115.191 55.8655C115.325 55.1589 115.627 54.498 115.793 53.8C115.958 53.102 115.978 52.3185 115.587 51.7174C115.017 50.8342 113.817 50.6604 112.771 50.5778C111.582 50.4752 110.519 50.6063 109.761 49.6063C109.405 49.0845 109.004 48.5945 108.564 48.1419C108.413 47.9938 106.888 47.0536 106.888 46.991Z" fill="#512E4E"/>
<path opacity="0.1" d="M75.9068 107.07L72.9279 101.565L71.9844 110.058C71.9844 110.058 72.5089 113.83 72.4034 114.409C72.2979 114.987 74.5527 120.172 74.5527 120.172C74.5527 120.172 82.0013 133.431 85.0429 134.115L95.3192 126.776L92.594 123.317C92.594 123.317 91.6505 122.95 91.4139 123.317C91.4139 123.317 86.3541 114.617 85.8296 113.987C85.3051 113.357 85.4077 112.101 85.4077 112.101C85.4077 112.101 84.621 111.263 84.8832 110.477C85.1455 109.691 83.3639 106.964 83.3639 106.964L84.9887 105.446L75.9068 107.07Z" fill="black"/>
<path d="M73.0819 100.939L72.2951 101.566L71.3516 110.059C71.3516 110.059 71.8761 113.831 71.7706 114.409C71.6651 114.987 73.9228 120.172 73.9228 120.172C73.9228 120.172 81.3685 133.431 84.41 134.115L94.6892 126.776L91.9612 123.318C91.9612 123.318 91.0177 122.95 90.7811 123.318C90.7811 123.318 85.7213 114.617 85.1968 113.987C84.6723 113.358 84.7778 112.101 84.7778 112.101C84.7778 112.101 83.991 111.264 84.2533 110.477C84.5155 109.691 82.7311 106.965 82.7311 106.965L84.3559 105.446L73.0819 100.939Z" fill="white"/>
<path opacity="0.1" d="M121.904 134.209C122.474 134.902 122.115 138.01 122.115 138.01L120.542 140.614C120.542 140.614 120.636 142.295 120.641 144.56L117.996 145.386C117.757 145.46 117.503 145.477 117.257 145.434C117.01 145.39 116.777 145.289 116.578 145.138C116.378 144.986 116.218 144.789 116.11 144.563C116.002 144.337 115.95 144.089 115.958 143.839L116.414 129.135L122.585 131.494C122.061 131.859 122.637 132.753 122.637 132.753C122.637 132.753 121.328 133.517 121.904 134.209Z" fill="black"/>
<path d="M122.219 133.893C122.789 134.585 122.43 137.696 122.43 137.696L120.857 140.3C120.857 140.3 120.951 141.978 120.959 144.246L118.266 145.087C118.032 145.159 117.783 145.175 117.542 145.133C117.3 145.09 117.073 144.991 116.877 144.842C116.682 144.694 116.525 144.501 116.42 144.28C116.314 144.059 116.263 143.816 116.27 143.571L116.729 128.822L122.904 131.181C122.376 131.545 122.952 132.437 122.952 132.437C122.952 132.437 121.649 133.203 122.219 133.893Z" fill="white"/>
<path d="M124.265 126.884C124.265 126.884 123.846 129.56 122.797 129.716C121.748 129.873 121.278 134.044 120.232 133.896C119.186 133.748 119.878 130.018 119.915 129.295C119.952 128.571 118.775 125.574 119.656 124.893C120.537 124.212 123.325 124.893 123.325 124.893L124.265 126.884Z" fill="#CF6F80"/>
<path opacity="0.1" d="M126.495 106.283L128.474 102.295C128.474 102.295 129.261 105.335 129.261 106.959C129.261 108.583 130.361 108.742 130.361 108.742C130.361 108.742 131.567 110.167 130.931 111.204C130.295 112.241 130.039 114.822 130.039 114.822C130.039 114.822 130.247 119.748 129.303 120.429C128.36 121.109 128.163 122.736 128.163 122.736C128.163 122.736 126.43 125.827 126.484 126.562C126.538 127.297 124.072 132.275 124.072 132.275C124.072 132.275 125.278 126.089 118.252 123.417C118.252 123.417 118.197 121.317 118.722 120.742C119.246 120.166 120.065 119.904 119.551 116.996C119.038 114.087 119.403 110.611 119.403 109.913C119.403 109.215 120.977 104.862 120.977 104.862L126.495 106.283Z" fill="black"/>
<path d="M127.352 101.725L129.08 102.295C129.08 102.295 129.869 105.335 129.869 106.959C129.869 108.583 130.97 108.742 130.97 108.742C130.97 108.742 132.175 110.167 131.54 111.204C130.904 112.241 130.65 114.822 130.65 114.822C130.65 114.822 130.858 119.748 129.915 120.429C128.971 121.109 128.76 122.736 128.76 122.736C128.76 122.736 127.03 125.827 127.084 126.562C127.138 127.297 124.67 132.275 124.67 132.275C124.67 132.275 125.879 126.089 118.849 123.417C118.849 123.417 118.798 121.317 119.322 120.742C119.847 120.166 120.665 119.904 120.152 116.996C119.639 114.087 120.004 110.611 120.004 109.913C120.004 109.215 121.577 104.862 121.577 104.862L127.352 101.725Z" fill="white"/>
<path opacity="0.1" d="M89.1992 205.106C89.1992 205.106 91.9529 203.376 93.7601 204.633C95.5674 205.889 89.1992 205.106 89.1992 205.106Z" fill="black"/>
<path opacity="0.1" d="M110.594 199.758C110.594 199.758 113.031 199.445 115.078 201.647C117.124 203.849 110.594 199.758 110.594 199.758Z" fill="black"/>
<g opacity="0.1">
<path d="M114.161 61.9791C113.81 62.281 113.36 62.4976 113.126 62.8993C112.926 63.244 112.921 63.6685 112.761 64.0389C112.601 64.4092 112.137 64.7112 111.815 64.4776C111.741 61.9135 110.475 59.5062 108.921 57.4549C108.487 56.8359 107.959 56.288 107.356 55.831C106.746 55.3726 105.987 55.1582 105.227 55.2299C104.372 55.3467 103.619 55.9279 102.756 55.9991C101.615 56.0959 100.592 55.3068 99.4603 55.2669C99.0004 55.2715 98.5468 55.3742 98.1299 55.5683C97.713 55.7624 97.3425 56.0433 97.043 56.3922C96.448 57.0937 96.0062 57.9118 95.746 58.7939C95.2981 60.1325 95.054 61.5309 95.022 62.942C95.0049 63.7369 94.9308 64.7283 94.1953 65.0246C94.2124 65.2351 94.2124 65.4466 94.1953 65.6571C94.9365 65.3722 95.0106 64.3693 95.0277 63.5716C95.0594 62.1605 95.3035 60.7621 95.7517 59.4235C96.0119 58.5405 96.4537 57.7216 97.0487 57.019C97.3488 56.671 97.7195 56.391 98.1363 56.1974C98.5532 56.0039 99.0065 55.9013 99.466 55.8965C100.606 55.9364 101.632 56.7227 102.761 56.6287C103.616 56.5575 104.375 55.9734 105.233 55.8595C105.993 55.7878 106.752 56.0022 107.362 56.4606C107.965 56.9176 108.493 57.4655 108.927 58.0845C110.481 60.1329 111.746 62.5346 111.82 65.1044C112.143 65.3408 112.607 65.0332 112.767 64.6685C112.926 64.3038 112.932 63.8765 113.132 63.5289C113.365 63.1272 113.816 62.9135 114.166 62.6115C115.056 61.8452 115.278 60.5546 115.244 59.3837C115.244 59.3466 115.244 59.3096 115.244 59.2754C115.19 60.2896 114.919 61.3238 114.161 61.9791Z" fill="black"/>
<path d="M93.1186 61.7771C92.463 61.0563 91.5679 60.5749 90.9664 59.8113C90.4599 59.1354 90.1707 58.3218 90.1369 57.478C90.0472 58.5324 90.3418 59.5837 90.9664 60.4381C91.5679 61.2045 92.463 61.6859 93.1186 62.4067C93.7481 63.1118 94.126 64.0055 94.1933 64.948C94.2369 64.3744 94.1642 63.7979 93.9795 63.253C93.7949 62.7081 93.502 62.2062 93.1186 61.7771Z" fill="black"/>
<path d="M115.801 53.1759C115.633 53.8739 115.334 54.5377 115.197 55.2414C115.116 55.7116 115.086 56.1893 115.109 56.6659C115.118 56.3944 115.148 56.124 115.197 55.8568C115.334 55.1502 115.633 54.4893 115.801 53.7913C115.899 53.4063 115.931 53.0075 115.896 52.6118C115.878 52.8019 115.846 52.9904 115.801 53.1759Z" fill="black"/>
</g>
<path opacity="0.1" d="M37.8346 216.69C53.1749 216.69 65.6106 214.694 65.6106 212.231C65.6106 209.769 53.1749 207.772 37.8346 207.772C22.4943 207.772 10.0586 209.769 10.0586 212.231C10.0586 214.694 22.4943 216.69 37.8346 216.69Z" fill="#7771E6"/>
<path d="M38.7326 126.819H36.9453V167.038H38.7326V126.819Z" fill="#535461"/>
<path d="M49.9631 166.915L49.8519 168.727L49.6923 171.291L49.6267 172.357L49.47 174.921L49.4015 175.986L49.2419 178.551L47.4404 207.63C47.362 208.881 46.8097 210.055 45.8956 210.914C44.9816 211.772 43.7746 212.251 42.5203 212.251H33.1533C31.8992 212.25 30.6926 211.772 29.779 210.914C28.8654 210.055 28.3136 208.881 28.236 207.63L26.443 178.531L26.2834 175.967L26.2178 174.901L26.0582 172.337L25.9926 171.271L25.833 168.707L25.719 166.895C25.6992 166.547 25.7509 166.198 25.8709 165.87C25.9909 165.541 26.1768 165.241 26.417 164.988C26.6572 164.734 26.9468 164.532 27.2679 164.394C27.5891 164.256 27.935 164.185 28.2845 164.186H47.4432C47.7914 164.189 48.1353 164.263 48.4536 164.404C48.7719 164.545 49.058 164.75 49.2941 165.006C49.5303 165.261 49.7114 165.563 49.8265 165.891C49.9416 166.22 49.988 166.568 49.9631 166.915Z" fill="#3F3D56"/>
<path d="M49.8507 168.727L49.691 171.283H25.9799L25.8203 168.727H49.8507Z" fill="#9D9CB5"/>
<path d="M49.6268 172.348L49.4701 174.907H26.2065L26.0469 172.348H49.6268Z" fill="#9D9CB5"/>
<path d="M49.3991 175.975L49.2423 178.531H26.4292L26.2695 175.975H49.3991Z" fill="#9D9CB5"/>
<path d="M23.0917 141.893C33.4991 149.42 37.8434 161.192 37.8434 161.192C37.8434 161.192 25.3009 160.761 14.8906 153.235C4.48026 145.708 0.144531 133.938 0.144531 133.938C0.144531 133.938 12.6814 134.366 23.0917 141.893Z" fill="#7771E6"/>
<path d="M0.136719 133.938C0.136719 133.938 13.1581 141.161 17.3342 147.141C21.5103 153.121 37.8441 161.192 37.8441 161.192" stroke="#535461" stroke-width="2" stroke-miterlimit="10"/>
<path d="M29.8115 126.731C35.4756 130.825 37.8445 137.232 37.8445 137.232C37.8445 137.232 31.0173 136.998 25.3504 132.905C19.6834 128.811 17.3203 122.4 17.3203 122.4C17.3203 122.4 24.1446 122.634 29.8115 126.731Z" fill="#7771E6"/>
<path d="M17.3203 122.4C17.3203 122.4 24.4068 126.332 26.6788 129.585C28.9507 132.839 37.8445 137.232 37.8445 137.232" stroke="#535461" stroke-width="2" stroke-miterlimit="10"/>
<path d="M46.0683 136.907C39.5604 144.055 38.1836 153.397 38.1836 153.397C38.1836 153.397 47.3596 151.146 53.8618 143.995C60.3639 136.844 61.7465 127.505 61.7465 127.505C61.7465 127.505 52.5761 129.759 46.0683 136.907Z" fill="#7771E6"/>
<path d="M61.7521 127.508C61.7521 127.508 53.2745 134.836 51.1195 139.884C48.9645 144.933 38.1836 153.397 38.1836 153.397" stroke="#535461" stroke-width="2" stroke-miterlimit="10"/>
<path d="M284.963 134.391C284.963 134.391 280.256 110.99 282.058 108.078C282.058 108.078 282.124 105.372 282.015 101.922C282.015 101.791 282.015 101.66 282.015 101.526C282.332 101.737 282.663 101.927 283.004 102.096C284.664 102.948 286.57 103.194 288.392 102.791L286.967 101.204C286.625 100.825 286.268 100.415 286.194 99.9132C286.12 99.4118 286.325 98.9645 286.502 98.5172C287.856 95.0985 287.927 90.7994 285.319 88.1897C283.116 85.996 282.58 83.1641 280.188 81.1613C278.441 79.6941 277.48 77.5431 276.573 75.4634C275.807 73.7056 275.034 71.9335 274.595 70.0703C274.253 68.6145 274.116 67.1074 273.646 65.6857C273.176 64.2641 272.295 62.8823 270.918 62.247C270.428 62.022 269.883 61.8938 269.436 61.5946C268.848 61.1986 268.495 60.5547 268.07 59.9907C265.912 57.1417 258.686 58.8197 255.265 59.9764C254.335 60.2677 253.474 60.7445 252.734 61.3781L252.765 61.3268C252.791 61.2841 252.822 61.2413 252.851 61.1986C252.477 61.5012 252.153 61.8619 251.893 62.267C251.394 63.0561 251.186 63.9764 250.77 64.831C250.268 65.8424 247.478 68.6658 248.678 69.8025C248.762 69.8788 248.858 69.9405 248.963 69.9848C249.413 70.1722 249.909 70.2218 250.388 70.1273L250.337 70.2498C249.927 71.2527 249.717 72.3259 249.718 73.4093C249.718 78.0901 253.581 81.885 258.35 81.885C259.246 81.8858 260.138 81.7484 260.992 81.4776C261.012 81.5858 261.029 81.6941 261.049 81.8023C261.049 81.8451 261.063 81.8878 261.069 81.9305L260.918 82.1414C260.911 82.1284 260.902 82.116 260.892 82.1043L256.417 88.355C255.733 88.8364 251.793 91.6854 251.571 93.8221C251.337 96.1611 251.104 98.899 251.104 98.899L251.072 99.4859C250.877 99.6492 250.648 99.7682 250.402 99.8346C250.156 99.901 249.898 99.9132 249.647 99.8705C248.25 99.6426 248.25 104.999 248.25 104.999C248.25 104.999 247.321 105.853 246.682 105.113C246.044 104.372 244.356 106.882 244.356 106.882L233.781 107.338L233.538 107.352L232.968 105.588C232.907 105.402 232.775 105.248 232.6 105.159C232.425 105.07 232.223 105.053 232.036 105.113C231.992 105.127 231.949 105.145 231.908 105.167L231.868 105.189L231.794 105.241L231.757 105.275C231.736 105.294 231.717 105.313 231.7 105.335L231.665 105.375L231.648 105.392C231.583 105.483 231.539 105.588 231.521 105.699C231.503 105.809 231.512 105.923 231.546 106.03L232.036 107.543C229.995 107.953 227.908 109.11 229.61 112.295L220.984 110.702L223.775 113.044L238.182 116.016C237.991 116.357 238.116 116.853 238.712 117.551C241.278 120.563 245.953 121.38 247.834 121.591C248.331 122.702 248.951 123.753 249.684 124.725L249.521 127.725C249.521 127.725 244.758 150.591 243.886 151.75C244.326 151.251 244.729 150.721 245.092 150.163C243.709 154.861 241.776 161.291 241.269 162.254C240.454 163.793 239.698 170.018 240.628 170.417C240.913 170.539 241.728 170.479 242.891 170.391V170.907L242.84 190.448C242.84 190.448 243.073 202.433 242.432 203.576C241.791 204.718 241.62 207.114 241.62 207.114C241.62 207.114 239.054 211.841 237.022 213.741C237.008 213.756 236.993 213.769 236.976 213.781L236.913 213.336C236.913 213.336 234.47 216.419 229.066 216.245C229.066 216.245 225.813 218.359 230.636 218.473C235.46 218.587 241.62 218.302 241.62 218.302C241.62 218.302 245.921 211.749 249.524 212.604V217.57H250.628V212.524C251.139 212.188 251.577 211.751 251.915 211.24C252.252 210.729 252.483 210.155 252.592 209.553C252.686 208.932 252.617 208.297 252.391 207.711C252.165 207.125 251.79 206.608 251.303 206.211C251.084 206.013 250.909 205.773 250.788 205.504C250.667 205.235 250.602 204.944 250.599 204.65L250.559 204.684C250.559 204.584 250.533 204.482 250.522 204.376C250.206 201.812 249.809 196.522 251.209 192.607C253.127 187.24 253.709 179.764 252.312 175.314C251.862 173.891 251.491 172.445 251.203 170.981C251.169 170.796 251.138 170.619 251.109 170.454C252.064 170.583 253.01 170.773 253.94 171.023C257.175 171.915 264.253 172.08 270.296 172.032C270.311 172.197 270.328 172.371 270.348 172.545C270.456 173.753 270.681 174.947 271.021 176.112C271.779 178.391 272.127 188.439 272.127 188.439C272.127 188.439 273.104 196.701 272.571 200.063C272.286 201.932 272.001 203.809 271.839 205.695V205.732C271.839 205.732 270.237 210.291 269.065 212.766C269.037 212.829 269.005 212.892 268.977 212.952C268.664 212.98 268.357 213.048 268.062 213.154C268.062 213.154 266.491 216.288 264.926 216.806C263.361 217.325 263.88 219.031 267.423 218.405C270.966 217.778 276.317 217.265 276.317 217.265L276.548 214.068L277.637 212.707L277.352 215.895L278.512 215.667L278.358 211.789L280.14 209.561C280.14 209.561 282.292 207.647 279.093 203.881V203.963C279.059 203.909 279.028 203.852 278.991 203.798V203.781C278.461 202.96 278.039 201.43 278.811 198.715C280.208 193.809 281.02 189.357 281.02 189.357C281.02 189.357 284.139 177.428 280.39 171.784H280.556C280.172 170.99 279.9 170.146 279.749 169.277C279.73 169.174 279.713 169.069 279.698 168.961C282.471 168.801 285.194 168.3 287.414 167.217C287.406 167.206 286.069 138.898 284.963 134.391ZM249.75 114.648V114.705L249.179 114.734L249.75 114.648ZM247.794 114.919C247.7 114.939 247.613 114.981 247.537 115.041C247.292 115.388 247.138 115.791 247.09 116.212L246.201 116.013C246.201 116.013 245.576 115.879 244.678 115.728L244.254 115.3C245.422 115.204 246.637 115.061 247.794 114.919Z" fill="url(#paint1_linear_99_1070)"/>
<path d="M277.222 211.829L276.883 215.866L278.02 215.638L277.849 211.259L277.222 211.829Z" fill="#1D2366"/>
<path d="M251.271 192.661C249.9 196.565 250.287 201.832 250.595 204.391C250.709 205.336 250.815 205.912 250.815 205.912C250.815 205.912 248.765 210.579 248.594 210.755C248.423 210.932 242.562 214.507 242.562 214.507L238.466 216.898C238.466 216.898 234.31 215.077 236.302 214.45C236.71 214.287 237.076 214.037 237.377 213.718C239.372 211.824 241.878 207.114 241.878 207.114C241.878 207.114 242.049 204.724 242.676 203.587C243.303 202.45 243.075 190.505 243.075 190.505L243.124 171.032V168.494L250.92 168.551C250.969 169.412 251.082 170.269 251.257 171.115C251.536 172.574 251.899 174.016 252.343 175.434C253.717 179.875 253.146 187.314 251.271 192.661Z" fill="#FFB0B1"/>
<path opacity="0.1" d="M250.815 205.912C250.815 205.912 248.765 210.579 248.594 210.755C248.423 210.932 242.562 214.507 242.562 214.507L238.466 216.898C238.466 216.898 234.31 215.077 236.302 214.45C236.71 214.287 237.076 214.037 237.377 213.718L237.554 214.963L238.919 214.906L250.607 204.396C250.709 205.337 250.815 205.912 250.815 205.912Z" fill="black"/>
<path d="M250.675 204.661L238.922 215.242L237.556 215.299L237.271 213.305C237.271 213.305 234.883 216.376 229.575 216.205C229.575 216.205 226.388 218.311 231.111 218.424C235.835 218.538 241.866 218.254 241.866 218.254C241.866 218.254 246.08 211.701 249.606 212.556V217.504H250.689V212.51C251.193 212.171 251.622 211.734 251.953 211.225C252.283 210.716 252.507 210.145 252.61 209.547C252.704 208.931 252.638 208.302 252.418 207.719C252.197 207.136 251.831 206.62 251.353 206.22C251.14 206.02 250.97 205.778 250.853 205.51C250.736 205.242 250.676 204.953 250.675 204.661Z" fill="#1D2366"/>
<path d="M278.304 198.747C277.546 201.453 277.959 202.977 278.478 203.795V203.812C279.144 204.822 279.606 205.951 279.841 207.137L279.886 207.393L274.539 215.185L271.637 216.325C271.637 216.325 266.97 214.732 267.823 214.276C268.037 214.165 268.37 213.573 268.752 212.755C269.892 210.291 271.466 205.744 271.466 205.744V205.707C271.631 203.829 271.893 201.957 272.184 200.094C272.706 196.741 271.748 188.51 271.748 188.51C271.748 188.51 271.406 178.502 270.665 176.226C270.33 175.068 270.108 173.881 270.001 172.681C269.847 171.257 269.812 170.083 269.812 170.083C269.812 170.083 272.885 165.81 278.518 170.425C278.969 170.793 279.365 171.223 279.695 171.701C283.586 177.234 280.454 189.422 280.454 189.422C280.454 189.422 279.67 193.855 278.304 198.747Z" fill="#FFB0B1"/>
<path opacity="0.1" d="M279.894 207.393L274.547 215.185L271.645 216.325C271.645 216.325 266.978 214.732 267.831 214.276C268.044 214.165 268.378 213.573 268.76 212.755C270.735 212.738 271.759 214.618 271.759 214.618L274.261 214.219C274.261 214.219 277.562 207.735 278.304 207.339C279.045 206.943 278.418 204.379 278.418 204.379V203.727C278.438 203.749 278.455 203.775 278.477 203.798V203.815C279.143 204.824 279.606 205.954 279.84 207.14L279.894 207.393Z" fill="black"/>
<path d="M271.929 214.787C271.929 214.787 270.504 212.171 267.773 213.137C267.773 213.137 266.236 216.271 264.7 216.778C263.164 217.285 263.677 218.994 267.149 218.371C270.621 217.747 275.854 217.231 275.854 217.231L276.082 214.043L279.611 209.55C279.611 209.55 281.715 207.644 278.585 203.892V204.545C278.585 204.545 279.212 207.109 278.471 207.505C277.73 207.901 274.44 214.388 274.44 214.388L271.929 214.787Z" fill="#1D2366"/>
<path opacity="0.1" d="M250.93 168.545C250.979 169.407 251.091 170.264 251.266 171.109C248.056 170.639 245.078 170.872 243.125 171.026V168.488L250.93 168.545Z" fill="black"/>
<path opacity="0.1" d="M280.012 172.411C280.012 172.411 275.451 172.633 270.012 172.679C269.858 171.254 269.824 170.08 269.824 170.08C269.824 170.08 272.897 165.807 278.53 170.422C278.98 170.79 279.377 171.22 279.707 171.698C279.796 171.941 279.897 172.179 280.012 172.411Z" fill="black"/>
<path d="M280.014 171.898C280.014 171.898 260.037 172.864 253.948 171.157C247.859 169.451 241.824 170.929 240.915 170.533C240.006 170.137 240.744 163.935 241.542 162.4C242.34 160.864 246.719 145.334 246.719 145.334L250.932 123.38L255.37 122.158L255.684 122.07L263.418 119.939L269.085 118.375C269.085 118.375 280.353 162.343 279.386 165.585C279.036 166.826 278.979 168.132 279.221 169.399C279.369 170.265 279.635 171.106 280.014 171.898Z" fill="#1D2366"/>
<path d="M236.244 108.366C236.244 108.366 232.254 112.64 235.275 115.021C238.297 117.403 240.284 115.249 240.284 115.249L236.244 108.366Z" fill="#C7DAF5"/>
<path opacity="0.1" d="M236.244 108.366C236.244 108.366 232.254 112.64 235.275 115.021C238.297 117.403 240.284 115.249 240.284 115.249L236.244 108.366Z" fill="black"/>
<path d="M268.487 80.2696C268.487 80.2696 268.019 80.714 267.315 81.3693C266.312 82.3066 264.827 83.6769 263.51 84.8251C261.685 86.412 260.18 87.5772 260.719 86.5829C261.258 85.5886 261.155 83.8564 260.887 82.2354C260.867 82.1271 260.85 82.0188 260.83 81.9134C260.608 80.7229 260.314 79.547 259.949 78.3921C259.949 78.3921 262.897 74.5859 264.527 73.0845C265.134 72.5147 265.559 72.2811 265.585 72.6771C265.613 73.2098 266.012 74.3865 266.508 75.6343C266.523 75.6742 266.537 75.7112 266.554 75.7511C266.885 76.6058 267.258 77.4833 267.586 78.2411C268.088 79.4035 268.487 80.2696 268.487 80.2696Z" fill="#FFB0B1"/>
<path opacity="0.1" d="M266.554 75.7512C266.277 77.2402 265.605 78.6275 264.608 79.7681C263.611 80.9088 262.326 81.7609 260.887 82.2354C260.66 80.9349 260.347 79.651 259.949 78.3922C259.949 78.3922 265.499 71.227 265.585 72.6772C265.605 73.227 266.038 74.4464 266.554 75.7512Z" fill="black"/>
<path opacity="0.1" d="M260.333 84.1501L261.051 83.1387C261.051 83.1387 261.527 86.0389 263.277 84.7597C265.028 83.4805 265.113 94.3864 265.113 94.3864L263.235 122.457L249.66 121.645L250.045 108.081L251.581 101.244L255.381 91.3038L257.642 88.0189L260.333 84.1501Z" fill="black"/>
<path d="M265.116 94.5598L263.406 119.941L263.226 122.631L255.658 122.178L255.373 122.161L249.672 121.819L250.057 108.252L251.593 101.414L255.393 91.4744L257.653 88.1895L260.344 84.3064L261.063 83.2979C261.063 83.2979 261.539 86.1981 263.289 84.9189L263.326 84.8933C265.036 83.8107 265.116 94.5598 265.116 94.5598Z" fill="#1D2366"/>
<path d="M251.782 99.0386C251.782 99.0386 251.101 100.463 249.733 100.232C248.364 100.002 248.367 105.36 248.367 105.36C248.367 105.36 247.458 106.215 246.831 105.474C246.204 104.734 244.55 107.238 244.55 107.238L234.191 107.694C234.191 107.694 238.801 109.799 237.897 116.169C237.897 116.169 253.547 115.201 254.06 113.722C254.573 112.244 251.782 99.0386 251.782 99.0386Z" fill="white"/>
<path opacity="0.03" d="M251.782 99.0386C251.782 99.0386 251.101 100.463 249.733 100.232C248.364 100.002 248.367 105.36 248.367 105.36C248.367 105.36 247.458 106.215 246.831 105.474C246.204 104.734 244.55 107.238 244.55 107.238L234.191 107.694C234.191 107.694 238.801 109.799 237.897 116.169C237.897 116.169 253.547 115.201 254.06 113.722C254.573 112.244 251.782 99.0386 251.782 99.0386Z" fill="black"/>
<path d="M221.68 111.042L224.411 113.372L246.89 118.093L244.102 115.249L221.68 111.042Z" fill="white"/>
<path d="M260.375 85.0476C260.002 85.6174 258.933 88.5347 258.041 91.0817C257.297 93.2042 256.675 95.0702 256.675 95.0702C256.675 95.0702 255.225 104.512 254.483 106.218C253.742 107.925 254.144 114.58 254.144 114.58L251.382 131.016C251.382 131.016 250.131 139.491 248.198 144.554C246.291 149.537 244.167 151.873 244.102 151.947C244.957 150.79 249.617 128.016 249.617 128.016L251.157 99.2924C251.157 99.2924 251.382 96.5631 251.61 94.2298C251.838 91.8965 256.456 88.7113 256.456 88.7113L260.909 82.3838C261.356 82.9821 261.057 84.0248 260.375 85.0476Z" fill="white"/>
<path d="M248.767 121.961C248.767 121.961 242.211 121.676 239.035 117.864C235.859 114.052 246.375 116.343 246.375 116.343L249.109 116.97L248.767 121.961Z" fill="#FFB0B1"/>
<path opacity="0.1" d="M279.383 165.587C279.032 166.829 278.976 168.135 279.218 169.402C272.066 169.909 264.415 167.978 264.415 167.978C262.99 169.288 259.235 171.22 259.235 171.22L257.189 145.864C255.88 142.445 255.367 124.534 255.367 124.534C255.367 124.534 255.484 123.597 255.652 122.192C255.652 122.158 255.652 122.121 255.666 122.087C256.177 118.164 257.189 110.799 257.685 109.805C258.369 108.437 255.581 104.799 255.581 104.799L256.849 93.9873L257.003 92.6824C259.677 91.4887 261.727 87.6768 261.727 87.6768L263.3 84.9218C265.011 83.825 265.099 94.5741 265.099 94.5741L263.389 119.956L269.056 118.391C269.056 118.391 280.35 162.345 279.383 165.587Z" fill="black"/>
<path d="M286.725 167.34C278.929 171.209 264.759 167.625 264.759 167.625C263.333 168.935 259.579 170.867 259.579 170.867L257.53 145.511C256.224 142.092 255.711 124.181 255.711 124.181C255.711 124.181 257.359 110.816 258.043 109.452C258.242 109.053 258.145 108.46 257.909 107.822C256.746 104.785 256.318 101.515 256.66 98.2809L257.207 93.6342L257.359 92.3322C260.035 91.1357 262.085 87.3238 262.085 87.3238L263.51 84.8281L266.133 80.2298L267.376 78.0532L267.586 78.2441L269.197 79.7028C269.197 79.7028 269.881 80.2726 270.907 81.1273C273.139 83.0076 276.996 86.3181 278.986 88.3437C280.736 90.1271 281.289 97.0644 281.449 102.287C281.554 105.725 281.492 108.42 281.492 108.42C279.727 111.323 284.342 134.631 284.342 134.631C285.417 139.135 286.725 167.34 286.725 167.34Z" fill="white"/>
<path opacity="0.03" d="M271.759 87.2666C271.759 87.2666 266.409 97.4459 267.03 101.315C267.652 105.184 269.419 109.563 268.567 110.585C268.274 110.973 267.895 111.287 267.46 111.504C267.026 111.721 266.547 111.835 266.061 111.836C265.206 111.893 262.925 113.486 262.925 113.657C262.925 113.828 260.819 113.827 258.934 114.625C257.05 115.423 254.268 115.876 254.268 115.876C254.268 115.876 248.852 115.705 248.347 116.218C247.843 116.731 247.324 119.799 248.404 122.246C249.485 124.693 250.685 126.52 251.591 126.853C252.498 127.186 258.25 125.26 262.917 124.805C267.583 124.349 272.649 120.654 272.649 120.654C272.649 120.654 278.227 118.659 279.205 115.306C280.183 111.953 278.011 93.5229 278.011 93.5229C278.011 93.5229 276.369 84.9333 271.759 87.2666Z" fill="black"/>
<path opacity="0.03" d="M271.075 86.4118C271.075 86.4118 265.725 96.594 266.352 100.46C266.979 104.326 268.741 108.708 267.885 109.733C267.594 110.121 267.216 110.436 266.781 110.653C266.347 110.87 265.868 110.984 265.383 110.984C264.527 111.041 262.247 112.634 262.247 112.805C262.247 112.976 260.14 112.976 258.256 113.77C256.372 114.565 253.59 115.021 253.59 115.021C253.59 115.021 248.174 114.85 247.672 115.363C247.17 115.876 246.646 118.947 247.729 121.391C248.812 123.836 250.009 125.665 250.916 125.998C251.822 126.332 257.575 124.406 262.241 123.953C266.908 123.5 271.973 119.799 271.973 119.799C271.973 119.799 277.549 117.805 278.515 114.454C279.482 111.104 277.321 92.6681 277.321 92.6681C277.321 92.6681 275.685 84.0813 271.075 86.4118Z" fill="black"/>
<path d="M271.593 86.7538C271.593 86.7538 266.243 96.936 266.87 100.802C267.497 104.668 269.259 109.05 268.406 110.073C268.115 110.461 267.736 110.777 267.301 110.995C266.867 111.212 266.387 111.326 265.901 111.326C265.046 111.383 262.765 112.976 262.765 113.144C262.765 113.312 260.661 113.315 258.774 114.112C256.887 114.91 254.108 115.363 254.108 115.363C254.108 115.363 248.692 115.192 248.187 115.705C247.683 116.218 247.164 119.289 248.244 121.733C249.325 124.178 250.525 126.007 251.431 126.34C252.338 126.674 258.09 124.748 262.757 124.292C267.423 123.836 272.488 120.141 272.488 120.141C272.488 120.141 278.067 118.147 279.045 114.793C280.022 111.44 277.865 93.0102 277.865 93.0102C277.865 93.0102 276.2 84.4348 271.593 86.7538Z" fill="white"/>
<path opacity="0.1" d="M271.473 114.064C271.473 114.064 267.198 113.209 268.686 114.634C270.174 116.058 270.165 117.306 271.987 117.249C273.808 117.192 271.473 114.064 271.473 114.064Z" fill="black"/>
<path opacity="0.1" d="M278.7 144.713C278.7 144.713 276.768 146.021 280.465 149.035C284.162 152.049 278.7 144.713 278.7 144.713Z" fill="black"/>
<path opacity="0.1" d="M275.013 155.462C275.013 155.633 274.329 161.73 276.888 163.254C279.448 164.779 275.013 155.462 275.013 155.462Z" fill="black"/>
<path d="M234.37 107.68C232.306 107.751 227.848 108.381 230.16 112.691C232.204 116.506 235.639 113.956 237.571 112.022C237.1 110.218 235.954 108.664 234.37 107.68Z" fill="#FFB0B1"/>
<path opacity="0.1" d="M270.907 81.3009C268.718 82.7966 266.882 84.0587 266.523 84.3208C265.542 85.0473 263.672 89.3122 262.466 91.4888C261.506 93.2409 258.384 93.6911 257.207 93.8022L257.358 92.5002C260.035 91.3036 262.084 87.4917 262.084 87.4917L267.375 78.2212L269.197 79.8764C269.197 79.8764 269.881 80.4462 270.907 81.3009Z" fill="black"/>
<path d="M270.907 81.13C268.718 82.6257 266.882 83.8878 266.523 84.1528C265.542 84.8764 263.672 89.1413 262.466 91.3179C261.506 93.07 258.384 93.5202 257.207 93.6313L257.358 92.3293C260.035 91.1327 262.084 87.3208 262.084 87.3208L267.375 78.0503L269.197 79.6998C269.197 79.6998 269.881 80.2639 270.907 81.13Z" fill="#DCE7FF"/>
<path d="M266.695 73.8709C266.696 75.5812 266.177 77.2513 265.207 78.6601C264.061 80.3257 262.356 81.5255 260.4 82.042C258.445 82.5584 256.369 82.3572 254.549 81.4749C252.73 80.5925 251.287 79.0875 250.482 77.2329C249.678 75.3782 249.566 73.2969 250.166 71.3665C250.765 69.4361 252.038 67.7845 253.752 66.7114C255.466 65.6383 257.508 65.2149 259.507 65.5178C261.507 65.8208 263.332 66.8302 264.65 68.3628C265.969 69.8953 266.694 71.8496 266.695 73.8709Z" fill="#FFB0B1"/>
<path opacity="0.1" d="M281.45 102.289C280.292 101.578 279.349 100.566 278.722 99.3607C278.246 98.4205 277.929 97.3351 277.117 96.6684C276.384 96.0701 275.407 95.9248 274.494 95.657C271.496 94.771 268.981 92.036 268.887 88.9135C268.842 87.4435 269.301 85.9762 269.092 84.5204C268.974 83.6965 268.646 82.9166 268.14 82.2555C267.889 81.9393 267.614 81.643 267.317 81.3695C266.918 80.9934 266.498 80.6287 266.134 80.2299C265.904 79.9829 265.703 79.7105 265.535 79.4179C265.399 79.1785 265.29 78.9254 265.207 78.6629C264.637 76.9194 265.156 74.851 264.529 73.0875L264.495 72.9906C264.258 72.3639 263.776 71.7371 263.106 71.6887C262.436 71.6402 261.863 72.1958 261.225 72.4436C259.888 72.9622 258.446 72.079 257.331 71.1787C256.216 70.2784 254.959 69.25 253.543 69.4494C252.605 69.5833 251.864 70.2214 251 70.5519C250.805 70.6274 250.604 70.6855 250.398 70.7257C251.129 68.9038 252.472 67.3932 254.197 66.4535C255.921 65.5137 257.919 65.2034 259.847 65.5759C261.775 65.9484 263.514 66.9804 264.763 68.4947C266.013 70.009 266.696 71.9109 266.695 73.8738C266.696 74.4666 266.634 75.0577 266.51 75.6373C266.524 75.6772 266.538 75.7143 266.555 75.7541C266.886 76.6088 267.26 77.4863 267.587 78.2441L269.198 79.7028C269.198 79.7028 269.882 80.2726 270.908 81.1273C273.14 83.0076 276.997 86.3181 278.987 88.3437C280.737 90.1329 281.284 97.0673 281.45 102.289Z" fill="black"/>
<path d="M250.898 65.3469C251.306 64.5178 251.508 63.589 251.996 62.8027C252.711 61.6631 253.96 60.9338 255.243 60.4922C258.592 59.3384 265.67 57.6632 267.785 60.4922C268.201 61.062 268.546 61.6945 269.122 62.0876C269.561 62.3868 270.091 62.515 270.573 62.74C271.921 63.3725 272.782 64.7514 273.241 66.1588C273.7 67.5662 273.837 69.0761 274.173 70.5263C274.604 72.3866 275.359 74.1502 276.112 75.9023C276.998 77.9706 277.939 80.1159 279.649 81.5774C281.984 83.5717 282.5 86.395 284.666 88.583C287.232 91.1813 287.149 95.469 285.826 98.8735C285.652 99.3208 285.456 99.788 285.524 100.264C285.593 100.74 285.946 101.173 286.28 101.552L287.682 103.133C284.364 103.933 280.61 102.201 279.065 99.1612C278.589 98.2211 278.272 97.1385 277.457 96.469C276.727 95.8707 275.747 95.7282 274.837 95.4604C271.839 94.5716 269.324 91.8337 269.23 88.7112C269.185 87.244 269.644 85.7768 269.436 84.3238C269.32 83.4944 268.991 82.7091 268.481 82.0446C267.697 81.0219 266.514 80.3353 265.875 79.1957C264.795 77.2897 265.616 74.814 264.838 72.7684C264.598 72.1416 264.119 71.5149 263.449 71.4664C262.779 71.418 262.207 71.9735 261.565 72.2214C260.231 72.7399 258.789 71.8596 257.674 70.9565C256.56 70.0533 255.302 69.0277 253.883 69.23C252.945 69.361 252.207 69.9992 251.343 70.3325C250.704 70.5776 249.41 70.7969 248.852 70.2585C247.671 69.173 250.405 66.3611 250.898 65.3469Z" fill="#591D4B"/>
<path opacity="0.1" d="M279.856 98.2209C279.377 97.2807 279.064 96.1981 278.249 95.5314C277.519 94.9331 276.538 94.7878 275.626 94.52C272.63 93.634 270.116 90.8962 270.019 87.7737C269.973 86.3065 270.432 84.8364 270.227 83.3834C270.108 82.5593 269.779 81.7795 269.272 81.1185C268.485 80.0957 267.302 79.4091 266.667 78.2695C265.586 76.3664 266.407 73.8907 265.626 71.8423C265.39 71.2183 264.908 70.5916 264.241 70.5403C263.574 70.489 262.995 71.0503 262.357 71.2981C261.022 71.8166 259.577 70.9335 258.466 70.0332C257.354 69.1329 256.091 68.1044 254.674 68.3039C253.736 68.4378 252.995 69.0759 252.134 69.4064C251.496 69.6514 250.199 69.8736 249.64 69.3352C248.466 68.1956 251.199 65.3894 251.69 64.3808C252.097 63.5489 252.3 62.623 252.79 61.8367C252.816 61.794 252.844 61.7512 252.873 61.7085C252.506 62.0121 252.189 62.3717 251.935 62.774C251.447 63.5603 251.245 64.4834 250.837 65.3181C250.344 66.3267 247.611 69.1414 248.788 70.2725C249.358 70.8138 250.641 70.5916 251.279 70.3466C252.134 70.0132 252.881 69.3751 253.819 69.244C255.244 69.0417 256.499 70.0702 257.61 70.9705C258.722 71.8708 260.176 72.7539 261.504 72.2354C262.143 71.9876 262.701 71.4292 263.386 71.4804C264.07 71.5317 264.526 72.1557 264.774 72.7824C265.552 74.828 264.731 77.3037 265.811 79.2097C266.45 80.3293 267.633 81.0302 268.417 82.0587C268.927 82.7231 269.256 83.5084 269.372 84.3378C269.58 85.7908 269.121 87.258 269.167 88.7252C269.261 91.8591 271.775 94.5856 274.774 95.4744C275.677 95.7422 276.664 95.8847 277.393 96.483C278.211 97.1525 278.534 98.2351 279.001 99.1753C280.546 102.215 284.3 103.947 287.618 103.147L286.957 102.4C284.081 102.443 281.17 100.808 279.856 98.2209Z" fill="black"/>
<path opacity="0.1" d="M260.205 85.2182C259.832 85.7879 258.763 88.7053 257.871 91.2523C257.036 90.9275 256.277 88.8563 256.277 88.8563L260.73 82.5259C261.186 83.1527 260.887 84.1925 260.205 85.2182Z" fill="black"/>
<path d="M260.377 85.0473C260.004 85.6171 258.935 88.5345 258.043 91.0814C257.207 90.7595 256.449 88.6855 256.449 88.6855L260.902 82.3579C261.358 82.9818 261.059 84.0246 260.377 85.0473Z" fill="#DCE7FF"/>
<path d="M234.488 114.152L232.019 106.372C231.99 106.281 231.979 106.185 231.987 106.09C231.995 105.994 232.022 105.901 232.066 105.816C232.11 105.732 232.17 105.656 232.243 105.594C232.316 105.533 232.401 105.486 232.492 105.457C232.676 105.4 232.875 105.418 233.046 105.506C233.217 105.595 233.346 105.747 233.404 105.93L235.873 113.702L235.628 115.329L234.488 114.152Z" fill="#BE8B87"/>
<path opacity="0.1" d="M232.253 105.688C232.437 105.63 232.636 105.647 232.808 105.736C232.979 105.824 233.109 105.977 233.168 106.161L235.636 113.933L235.451 115.152L235.631 115.34L235.876 113.714L233.393 105.942C233.334 105.758 233.205 105.606 233.034 105.517C232.863 105.429 232.664 105.411 232.481 105.469C232.326 105.519 232.193 105.619 232.102 105.754C232.15 105.728 232.201 105.706 232.253 105.688Z" fill="white"/>
<path d="M234.488 114.153L235.874 113.714L235.671 115.047L235.629 115.341L235.224 114.919L234.488 114.153Z" fill="#EFC8C4"/>
<path d="M235.223 114.919C235.247 114.888 235.277 114.863 235.311 114.845C235.331 114.832 235.354 114.825 235.378 114.825C235.402 114.825 235.425 114.832 235.445 114.845C235.464 114.868 235.481 114.894 235.493 114.921C235.512 114.953 235.538 114.98 235.569 115C235.599 115.02 235.634 115.033 235.67 115.038L235.627 115.323L235.223 114.919Z" fill="#727A9C"/>
<path d="M232.004 109.135C232.004 109.135 236.955 109.107 235.789 111.212C234.624 113.318 232.802 113.571 232.802 113.571L232.004 109.135Z" fill="#FFB0B1"/>
<path d="M201.209 14.6494H200.995C192.489 14.6494 184.966 19.1479 180.639 25.786C176.312 19.1479 168.789 14.6494 160.283 14.6494H160.069C153.686 14.7102 147.584 17.2864 143.09 21.8182C138.596 26.35 136.074 32.4711 136.07 38.8514C136.07 46.7744 139.542 58.0164 146.312 67.267C159.211 84.8935 180.639 100.315 180.639 100.315C180.639 100.315 202.067 84.8964 214.963 67.267C221.736 58.0164 225.205 46.7744 225.205 38.8514C225.201 32.4716 222.679 26.3509 218.186 21.8192C213.693 17.2875 207.592 14.711 201.209 14.6494ZM198.15 68.6231C197.181 68.6194 196.236 68.323 195.439 67.7729C194.642 67.2228 194.03 66.4446 193.683 65.5405H188.598C188.263 65.5384 187.937 65.4319 187.666 65.2357C187.394 65.0396 187.191 64.7637 187.084 64.4465L185.522 59.7429L180.579 77.0047C180.483 77.337 180.281 77.6292 180.005 77.8372C179.728 78.0453 179.392 78.158 179.046 78.1586H178.946C178.585 78.1411 178.24 78.0003 177.971 77.7597C177.701 77.5191 177.522 77.1933 177.464 76.8366L172.37 46.216L168.647 64.3354C168.561 64.6796 168.363 64.9853 168.084 65.2037C167.804 65.4222 167.459 65.5407 167.105 65.5405H159.941C159.726 65.5496 159.512 65.5152 159.311 65.4393C159.11 65.3634 158.926 65.2477 158.771 65.099C158.616 64.9504 158.492 64.7719 158.408 64.5743C158.324 64.3768 158.28 64.1642 158.28 63.9494C158.28 63.7345 158.324 63.522 158.408 63.3244C158.492 63.1268 158.616 62.9483 158.771 62.7997C158.926 62.651 159.11 62.5353 159.311 62.4594C159.512 62.3836 159.726 62.3491 159.941 62.3582H165.85L171.124 37.9967C171.21 37.6365 171.419 37.3176 171.715 37.0944C172.011 36.8712 172.375 36.7577 172.746 36.7731C173.116 36.7886 173.469 36.9322 173.745 37.1792C174.022 37.4263 174.203 37.7616 174.259 38.1277L179.462 69.3638L183.892 53.9196C183.984 53.5943 184.179 53.3076 184.448 53.1022C184.716 52.8968 185.044 52.7838 185.382 52.78H185.414C185.749 52.7801 186.075 52.8859 186.347 53.0824C186.618 53.2788 186.82 53.5559 186.925 53.874L189.749 62.3668H193.621C193.896 61.531 194.397 60.7876 195.068 60.2184C195.739 59.6493 196.555 59.2766 197.425 59.1414C198.295 59.0063 199.185 59.114 199.997 59.4526C200.81 59.7912 201.513 60.3476 202.029 61.0604C202.545 61.7731 202.854 62.6146 202.922 63.4918C202.99 64.369 202.814 65.2478 202.413 66.0314C202.013 66.8149 201.404 67.4727 200.653 67.932C199.902 68.3914 199.039 68.6345 198.159 68.6345L198.15 68.6231Z" fill="#7771E6"/>
</g>
<defs>
<linearGradient id="paint0_linear_99_1070" x1="101.573" y1="220.758" x2="101.573" y2="45.4495" gradientUnits="userSpaceOnUse">
<stop stop-color="#808080" stop-opacity="0.25"/>
<stop offset="0.54" stop-color="#808080" stop-opacity="0.12"/>
<stop offset="1" stop-color="#808080" stop-opacity="0.1"/>
</linearGradient>
<linearGradient id="paint1_linear_99_1070" x1="254.678" y1="218.541" x2="254.678" y2="58.4294" gradientUnits="userSpaceOnUse">
<stop stop-color="#808080" stop-opacity="0.25"/>
<stop offset="0.54" stop-color="#808080" stop-opacity="0.12"/>
<stop offset="1" stop-color="#808080" stop-opacity="0.1"/>
</linearGradient>
<clipPath id="clip0_99_1070">
<rect width="315" height="223" fill="white"/>
</clipPath>
</defs>
</svg>
