<svg width="282" height="175" viewBox="0 0 282 175" fill="none" xmlns="http://www.w3.org/2000/svg">
<g clip-path="url(#clip0_34_7924)">
<path d="M68.3012 157.742L68.6148 150.693C71.8835 148.946 75.5294 148.023 79.2357 148.005C74.1347 152.174 74.7722 160.212 71.3138 165.819C70.2217 167.559 68.7519 169.032 67.0132 170.127C65.2746 171.223 63.3117 171.913 61.2699 172.147L57.0012 174.76C56.4154 171.495 56.5446 168.142 57.3797 164.932C58.2148 161.722 59.7361 158.732 61.8387 156.166C63.0325 154.738 64.4014 153.467 65.913 152.381C66.9354 155.076 68.3012 157.742 68.3012 157.742Z" fill="#F2F2F2"/>
<path d="M250.45 11.4847H51.7301C51.6467 11.4829 51.5673 11.4485 51.509 11.3888C51.4506 11.3292 51.418 11.2491 51.418 11.1657C51.418 11.0823 51.4506 11.0022 51.509 10.9426C51.5673 10.8829 51.6467 10.8485 51.7301 10.8467H250.45C250.534 10.8485 250.613 10.8829 250.671 10.9426C250.73 11.0022 250.762 11.0823 250.762 11.1657C250.762 11.2491 250.73 11.3292 250.671 11.3888C250.613 11.4485 250.534 11.4829 250.45 11.4847Z" fill="#CACACA"/>
<path d="M58.7538 7.01841C60.6501 7.01841 62.1873 5.44729 62.1873 3.50921C62.1873 1.57113 60.6501 0 58.7538 0C56.8575 0 55.3203 1.57113 55.3203 3.50921C55.3203 5.44729 56.8575 7.01841 58.7538 7.01841Z" fill="#3F3D56"/>
<path d="M70.6132 7.01841C72.5095 7.01841 74.0467 5.44729 74.0467 3.50921C74.0467 1.57113 72.5095 0 70.6132 0C68.7169 0 67.1797 1.57113 67.1797 3.50921C67.1797 5.44729 68.7169 7.01841 70.6132 7.01841Z" fill="#3F3D56"/>
<path d="M82.4765 7.01841C84.3727 7.01841 85.91 5.44729 85.91 3.50921C85.91 1.57113 84.3727 0 82.4765 0C80.5802 0 79.043 1.57113 79.043 3.50921C79.043 5.44729 80.5802 7.01841 82.4765 7.01841Z" fill="#3F3D56"/>
<path d="M243.34 0.869629H234.914C234.747 0.872944 234.588 0.941599 234.471 1.06085C234.355 1.18011 234.289 1.34045 234.289 1.50745C234.289 1.67445 234.355 1.83479 234.471 1.95404C234.588 2.0733 234.747 2.14195 234.914 2.14527H243.34C243.507 2.14195 243.666 2.0733 243.783 1.95404C243.9 1.83479 243.965 1.67445 243.965 1.50745C243.965 1.34045 243.9 1.18011 243.783 1.06085C243.666 0.941599 243.507 0.872944 243.34 0.869629Z" fill="#3F3D56"/>
<path d="M243.34 3.26416H234.914C234.747 3.26747 234.588 3.33613 234.471 3.45538C234.355 3.57464 234.289 3.73498 234.289 3.90198C234.289 4.06898 234.355 4.22932 234.471 4.34858C234.588 4.46783 234.747 4.53648 234.914 4.5398H243.34C243.507 4.53648 243.666 4.46783 243.783 4.34858C243.9 4.22932 243.965 4.06898 243.965 3.90198C243.965 3.73498 243.9 3.57464 243.783 3.45538C243.666 3.33613 243.507 3.26747 243.34 3.26416Z" fill="#3F3D56"/>
<path d="M243.34 5.65479H234.914C234.747 5.6581 234.588 5.72675 234.471 5.846C234.355 5.96526 234.289 6.1256 234.289 6.2926C234.289 6.45961 234.355 6.61995 234.471 6.7392C234.588 6.85845 234.747 6.92711 234.914 6.93042H243.34C243.507 6.92711 243.666 6.85845 243.783 6.7392C243.9 6.61995 243.965 6.45961 243.965 6.2926C243.965 6.1256 243.9 5.96526 243.783 5.846C243.666 5.72675 243.507 5.6581 243.34 5.65479Z" fill="#3F3D56"/>
<path d="M206.385 36.4912H69.9893C69.3172 36.4912 68.6726 36.758 68.1971 37.2328C67.7216 37.7076 67.454 38.3517 67.4531 39.0236V103.393C67.4539 104.065 67.7213 104.71 68.1968 105.185C68.6722 105.661 69.3169 105.928 69.9893 105.929H206.385C207.057 105.927 207.701 105.66 208.176 105.184C208.651 104.709 208.918 104.065 208.918 103.393V39.0236C208.918 38.3522 208.651 37.7085 208.176 37.2337C207.701 36.7589 207.057 36.4919 206.385 36.4912Z" fill="#3F3D56"/>
<path d="M170.357 67.5024C169.686 67.5031 169.042 67.7702 168.567 68.2449C168.092 68.7197 167.825 69.3634 167.824 70.0349V88.2175C167.825 88.8892 168.092 89.5333 168.567 90.0086C169.041 90.4839 169.685 90.7516 170.357 90.753H208.918V67.5024H170.357Z" fill="#6C63FF"/>
<path opacity="0.5" d="M273.757 90.7521H170.359C169.687 90.7513 169.043 90.484 168.568 90.0089C168.092 89.5338 167.825 88.8896 167.824 88.2176V70.0358C167.825 69.3639 168.092 68.7197 168.568 68.2446C169.043 67.7695 169.687 67.5022 170.359 67.5015H273.757C274.429 67.5022 275.074 67.7695 275.549 68.2446C276.024 68.7197 276.291 69.3639 276.292 70.0358V88.2176C276.291 88.8896 276.024 89.5338 275.549 90.0089C275.074 90.484 274.429 90.7513 273.757 90.7521Z" fill="#6C63FF"/>
<path d="M184.34 84.4016C186.612 84.4016 188.454 82.5603 188.454 80.2889C188.454 78.0176 186.612 76.1763 184.34 76.1763C182.068 76.1763 180.227 78.0176 180.227 80.2889C180.227 82.5603 182.068 84.4016 184.34 84.4016Z" fill="white"/>
<path d="M270.554 79.0939H196.225C195.9 79.0939 195.589 78.9648 195.359 78.7352C195.129 78.5055 195 78.194 195 77.8692C195 77.5444 195.129 77.2329 195.359 77.0032C195.589 76.7736 195.9 76.6445 196.225 76.6445H270.554C270.879 76.6445 271.191 76.7736 271.42 77.0032C271.65 77.2329 271.779 77.5444 271.779 77.8692C271.779 78.194 271.65 78.5055 271.42 78.7352C271.191 78.9648 270.879 79.0939 270.554 79.0939Z" fill="white"/>
<path d="M242.323 83.9333H196.225C195.9 83.9333 195.589 83.8043 195.359 83.5746C195.129 83.3449 195 83.0334 195 82.7086C195 82.3838 195.129 82.0723 195.359 81.8426C195.589 81.6129 195.9 81.4839 196.225 81.4839H242.323C242.648 81.4839 242.96 81.6129 243.189 81.8426C243.419 82.0723 243.548 82.3838 243.548 82.7086C243.548 83.0334 243.419 83.3449 243.189 83.5746C242.96 83.8043 242.648 83.9333 242.323 83.9333Z" fill="white"/>
<path d="M47.5827 171.406L51.1427 171.406L52.8363 157.678H47.582L47.5827 171.406Z" fill="#FFB6B6"/>
<path d="M46.6758 170.244L47.6778 170.244L51.59 168.653L53.6867 170.244C54.8717 170.244 56.0084 170.714 56.8462 171.552C57.6841 172.39 58.1549 173.526 58.155 174.711V174.856L46.676 174.856L46.6758 170.244Z" fill="#2F2E41"/>
<path d="M15.4141 166.779L18.6004 168.366L26.2416 156.835L21.5392 154.492L15.4141 166.779Z" fill="#FFB6B6"/>
<path d="M15.1202 165.333L16.0171 165.78L20.2281 166.102L21.3951 168.46C22.4555 168.989 23.2629 169.917 23.639 171.04C24.0151 172.164 23.9295 173.39 23.401 174.451L23.3362 174.581L13.0625 169.461L15.1202 165.333Z" fill="#2F2E41"/>
<path d="M49.1609 109.057L26.5253 109.647L26.919 120.667C26.919 120.667 26.5253 123.619 27.3127 124.406C28.1 125.193 28.4936 125.193 28.1 126.571C27.7063 127.948 26.6886 141.11 26.6886 141.11C26.6886 141.11 17.3983 157.533 17.792 157.926C18.1856 158.32 18.5793 157.926 18.1856 158.91C17.792 159.894 17.3983 159.501 17.792 159.894C18.1407 160.27 18.4692 160.664 18.7761 161.075H25.1921C25.1921 161.075 25.5509 159.107 25.5509 158.91C25.5509 158.713 25.9446 157.533 25.9446 157.336C25.9446 157.139 37.1542 145.265 37.1542 145.265L39.5162 125.587L45.2243 144.872C45.2243 144.872 45.2243 161.795 45.618 162.189C46.0116 162.582 46.0116 162.386 45.8148 163.173C45.618 163.96 44.8306 163.763 45.4211 164.353C46.0116 164.944 46.2085 163.96 46.0116 164.944L45.8148 165.928L53.3769 166.012C53.3769 166.012 54.1642 164.353 53.7705 163.763C53.3769 163.173 53.4005 163.334 53.8808 162.368C54.361 161.402 54.5579 161.205 54.361 161.008C54.1642 160.811 54.1642 159.765 54.1642 159.765C54.1642 159.765 51.3261 121.061 51.3261 120.47C51.3112 120.166 51.3672 119.863 51.4896 119.585V118.784L50.7356 115.944L49.1609 109.057Z" fill="#2F2E41"/>
<path d="M273.315 74.8881C271.597 74.8881 269.917 74.3788 268.489 73.4246C267.061 72.4704 265.947 71.1142 265.29 69.5274C264.633 67.9407 264.461 66.1947 264.796 64.5102C265.131 62.8257 265.958 61.2784 267.173 60.0639C268.388 58.8495 269.935 58.0224 271.62 57.6874C273.305 57.3523 275.051 57.5243 276.639 58.1815C278.226 58.8388 279.582 59.9518 280.537 61.3798C281.491 62.8079 282 64.4868 282 66.2043C282 68.5074 281.085 70.7161 279.456 72.3447C277.828 73.9732 275.618 74.8881 273.315 74.8881Z" fill="#6C63FF"/>
<path d="M276.74 65.3478H274.17V62.778C274.17 62.5508 274.08 62.3329 273.919 62.1723C273.758 62.0116 273.54 61.9214 273.313 61.9214C273.086 61.9214 272.868 62.0116 272.707 62.1723C272.546 62.3329 272.456 62.5508 272.456 62.778V65.3478H269.886C269.773 65.3476 269.662 65.3696 269.557 65.4125C269.453 65.4555 269.359 65.5186 269.279 65.5981C269.199 65.6777 269.136 65.7722 269.093 65.8762C269.05 65.9803 269.027 66.0918 269.027 66.2044C269.027 66.317 269.05 66.4286 269.093 66.5326C269.136 66.6366 269.199 66.7311 269.279 66.8107C269.359 66.8903 269.453 66.9533 269.557 66.9963C269.662 67.0392 269.773 67.0612 269.886 67.061H272.456V69.6308C272.456 69.858 272.546 70.0759 272.707 70.2365C272.868 70.3972 273.086 70.4874 273.313 70.4874C273.54 70.4874 273.758 70.3972 273.919 70.2365C274.08 70.0759 274.17 69.858 274.17 69.6308V67.061H276.74C276.967 67.061 277.185 66.9708 277.346 66.8101C277.507 66.6495 277.597 66.4316 277.597 66.2044C277.597 65.9772 277.507 65.7593 277.346 65.5987C277.185 65.4381 276.967 65.3478 276.74 65.3478Z" fill="white"/>
<path d="M140.756 90.8696H107.755C107.082 90.8704 106.438 91.1377 105.962 91.6131C105.487 92.0884 105.219 92.733 105.219 93.4052V105.929H143.289V93.4052C143.289 92.7334 143.022 92.0893 142.547 91.614C142.072 91.1387 141.428 90.871 140.756 90.8696Z" fill="#6C63FF"/>
<path opacity="0.5" d="M140.755 126.06H107.754C107.082 126.059 106.437 125.792 105.962 125.317C105.487 124.841 105.22 124.197 105.219 123.525V93.404C105.22 92.732 105.487 92.0879 105.962 91.6127C106.437 91.1376 107.082 90.8704 107.754 90.8696H140.755C141.427 90.8704 142.072 91.1376 142.547 91.6127C143.022 92.0879 143.29 92.732 143.29 93.404V123.525C143.29 124.197 143.022 124.841 142.547 125.317C142.072 125.792 141.427 126.059 140.755 126.06Z" fill="#6C63FF"/>
<path d="M117.477 105.147C119.749 105.147 121.59 103.305 121.59 101.034C121.59 98.7627 119.749 96.9214 117.477 96.9214C115.205 96.9214 113.363 98.7627 113.363 101.034C113.363 103.305 115.205 105.147 117.477 105.147Z" fill="white"/>
<path d="M133.92 111.398H114.588C114.263 111.398 113.952 111.269 113.722 111.039C113.492 110.809 113.363 110.498 113.363 110.173C113.363 109.848 113.492 109.537 113.722 109.307C113.952 109.077 114.263 108.948 114.588 108.948H133.92C134.245 108.948 134.557 109.077 134.786 109.307C135.016 109.537 135.145 109.848 135.145 110.173C135.145 110.498 135.016 110.809 134.786 111.039C134.557 111.269 134.245 111.398 133.92 111.398Z" fill="white"/>
<path d="M123.917 116.237H114.588C114.263 116.237 113.952 116.108 113.722 115.878C113.492 115.649 113.363 115.337 113.363 115.012C113.363 114.688 113.492 114.376 113.722 114.146C113.952 113.917 114.263 113.788 114.588 113.788H123.917C124.242 113.788 124.553 113.917 124.783 114.146C125.013 114.376 125.142 114.688 125.142 115.012C125.142 115.337 125.013 115.649 124.783 115.878C124.553 116.108 124.242 116.237 123.917 116.237Z" fill="white"/>
<path d="M107.065 134.9C105.347 134.9 103.668 134.39 102.239 133.436C100.811 132.482 99.6975 131.126 99.0401 129.539C98.3827 127.952 98.2107 126.206 98.5458 124.522C98.8809 122.837 99.7082 121.29 100.923 120.076C102.138 118.861 103.685 118.034 105.37 117.699C107.055 117.364 108.801 117.536 110.389 118.193C111.976 118.85 113.332 119.964 114.287 121.392C115.241 122.82 115.75 124.499 115.75 126.216C115.75 128.519 114.835 130.728 113.206 132.356C111.578 133.985 109.368 134.9 107.065 134.9Z" fill="#6C63FF"/>
<path d="M110.494 125.36H107.924V122.79C107.924 122.563 107.833 122.345 107.673 122.184C107.512 122.023 107.294 121.933 107.067 121.933C106.84 121.933 106.622 122.023 106.461 122.184C106.3 122.345 106.21 122.563 106.21 122.79V125.36H103.64C103.527 125.359 103.415 125.381 103.311 125.424C103.207 125.467 103.113 125.53 103.033 125.61C102.953 125.689 102.89 125.784 102.847 125.888C102.803 125.992 102.781 126.104 102.781 126.216C102.781 126.329 102.803 126.44 102.847 126.544C102.89 126.648 102.953 126.743 103.033 126.822C103.113 126.902 103.207 126.965 103.311 127.008C103.415 127.051 103.527 127.073 103.64 127.073H106.21V129.643C106.21 129.87 106.3 130.088 106.461 130.248C106.622 130.409 106.84 130.499 107.067 130.499C107.294 130.499 107.512 130.409 107.673 130.248C107.833 130.088 107.924 129.87 107.924 129.643V127.073H110.494C110.721 127.073 110.939 126.982 111.1 126.822C111.261 126.661 111.351 126.443 111.351 126.216C111.351 125.989 111.261 125.771 111.1 125.61C110.939 125.45 110.721 125.36 110.494 125.36Z" fill="white"/>
<path d="M103.044 71.7208H70.0428C69.3707 71.7201 68.7264 71.4528 68.2511 70.9777C67.7759 70.5025 67.5086 69.8583 67.5078 69.1864V39.0651C67.5086 38.3932 67.7759 37.749 68.2512 37.2739C68.7264 36.7987 69.3707 36.5315 70.0428 36.5308H103.044C103.716 36.5315 104.361 36.7987 104.836 37.2739C105.311 37.749 105.579 38.3932 105.579 39.0651V69.1864C105.579 69.8583 105.311 70.5025 104.836 70.9777C104.361 71.4528 103.716 71.7201 103.044 71.7208Z" fill="#6C63FF"/>
<path d="M79.7659 53.3215C82.0378 53.3215 83.8795 51.4802 83.8795 49.2088C83.8795 46.9375 82.0378 45.0962 79.7659 45.0962C77.4941 45.0962 75.6523 46.9375 75.6523 49.2088C75.6523 51.4802 77.4941 53.3215 79.7659 53.3215Z" fill="#6C63FF"/>
<path d="M96.2093 58.3155H76.8773C76.5524 58.3155 76.2408 58.1865 76.0111 57.9568C75.7814 57.7272 75.6523 57.4157 75.6523 57.0909C75.6523 56.7661 75.7814 56.4546 76.0111 56.2249C76.2408 55.9952 76.5524 55.8662 76.8773 55.8662H96.2093C96.5342 55.8662 96.8458 55.9952 97.0755 56.2249C97.3052 56.4546 97.4343 56.7661 97.4343 57.0909C97.4343 57.4157 97.3052 57.7272 97.0755 57.9568C96.8458 58.1865 96.5342 58.3155 96.2093 58.3155Z" fill="#6C63FF"/>
<path d="M86.206 63.155H76.8774C76.5525 63.155 76.2409 63.026 76.0111 62.7963C75.7814 62.5666 75.6523 62.2551 75.6523 61.9303C75.6523 61.6055 75.7814 61.294 76.0111 61.0643C76.2409 60.8346 76.5525 60.7056 76.8774 60.7056H86.206C86.5309 60.7056 86.8425 60.8346 87.0722 61.0643C87.302 61.294 87.431 61.6055 87.431 61.9303C87.431 62.2551 87.302 62.5666 87.0722 62.7963C86.8425 63.026 86.5309 63.155 86.206 63.155Z" fill="#6C63FF"/>
<path opacity="0.5" d="M103.044 71.7208H70.0428C69.3707 71.7201 68.7264 71.4528 68.2511 70.9777C67.7759 70.5025 67.5086 69.8583 67.5078 69.1864V39.0651C67.5086 38.3932 67.7759 37.749 68.2512 37.2739C68.7264 36.7987 69.3707 36.5315 70.0428 36.5308H103.044C103.716 36.5315 104.361 36.7987 104.836 37.2739C105.311 37.749 105.579 38.3932 105.579 39.0651V69.1864C105.579 69.8583 105.311 70.5025 104.836 70.9777C104.361 71.4528 103.716 71.7201 103.044 71.7208Z" fill="#6C63FF"/>
<path d="M79.7659 53.3215C82.0378 53.3215 83.8795 51.4802 83.8795 49.2088C83.8795 46.9375 82.0378 45.0962 79.7659 45.0962C77.4941 45.0962 75.6523 46.9375 75.6523 49.2088C75.6523 51.4802 77.4941 53.3215 79.7659 53.3215Z" fill="white"/>
<path d="M96.2093 58.3155H76.8773C76.5524 58.3155 76.2408 58.1865 76.0111 57.9568C75.7814 57.7272 75.6523 57.4157 75.6523 57.0909C75.6523 56.7661 75.7814 56.4546 76.0111 56.2249C76.2408 55.9952 76.5524 55.8662 76.8773 55.8662H96.2093C96.5342 55.8662 96.8458 55.9952 97.0755 56.2249C97.3052 56.4546 97.4343 56.7661 97.4343 57.0909C97.4343 57.4157 97.3052 57.7272 97.0755 57.9568C96.8458 58.1865 96.5342 58.3155 96.2093 58.3155Z" fill="white"/>
<path d="M86.206 63.155H76.8774C76.5525 63.155 76.2409 63.026 76.0111 62.7963C75.7814 62.5666 75.6523 62.2551 75.6523 61.9303C75.6523 61.6055 75.7814 61.294 76.0111 61.0643C76.2409 60.8346 76.5525 60.7056 76.8774 60.7056H86.206C86.5309 60.7056 86.8425 60.8346 87.0722 61.0643C87.302 61.294 87.431 61.6055 87.431 61.9303C87.431 62.2551 87.302 62.5666 87.0722 62.7963C86.8425 63.026 86.5309 63.155 86.206 63.155Z" fill="white"/>
<path d="M70.7247 43.0298C74.3696 43.0298 77.3243 40.0757 77.3243 36.4316C77.3243 32.7876 74.3696 29.8335 70.7247 29.8335C67.0798 29.8335 64.125 32.7876 64.125 36.4316C64.125 40.0757 67.0798 43.0298 70.7247 43.0298Z" fill="#FF6584"/>
<path d="M88.8346 174.626C88.8348 174.675 88.8252 174.724 88.8065 174.77C88.7877 174.815 88.7602 174.856 88.7254 174.891C88.6907 174.926 88.6494 174.953 88.6039 174.972C88.5585 174.991 88.5098 175 88.4606 175H0.373982C0.274796 175 0.179671 174.961 0.109536 174.891C0.0394009 174.821 0 174.726 0 174.626C0 174.527 0.0394009 174.432 0.109536 174.362C0.179671 174.292 0.274796 174.252 0.373982 174.252H88.4606C88.5098 174.252 88.5585 174.262 88.6039 174.281C88.6494 174.299 88.6907 174.327 88.7254 174.362C88.7602 174.396 88.7877 174.438 88.8065 174.483C88.8252 174.529 88.8348 174.577 88.8346 174.626Z" fill="#CCCCCC"/>
<path d="M69.3156 53.9089C69.5869 54.6673 69.5492 55.5019 69.2107 56.2328C68.8721 56.9637 68.2598 57.5323 67.5058 57.816C67.339 57.8782 67.167 57.9256 66.9918 57.9576L65.2488 68.6275L61.1602 64.8532L63.4422 55.2995C63.3577 54.4945 63.5935 53.6885 64.0987 53.0559C64.6038 52.4233 65.3377 52.0149 66.1416 51.9189C66.818 51.8414 67.5007 51.9962 68.0774 52.3578C68.6542 52.7194 69.0908 53.2664 69.3156 53.9089Z" fill="#FFB6B6"/>
<path d="M39.1406 78.0857C39.1406 78.0857 42.3139 73.8938 53.8292 74.0086L60.3654 71.6344L61.8591 57.9448L67.0873 59.1893L66.3404 76.1147L55.1372 82.5861L40.4486 85.5729L39.1406 78.0857Z" fill="#3F3D56"/>
<path d="M37.4518 69.353C41.2264 69.353 44.2863 66.2938 44.2863 62.52C44.2863 58.7463 41.2264 55.687 37.4518 55.687C33.6771 55.687 30.6172 58.7463 30.6172 62.52C30.6172 66.2938 33.6771 69.353 37.4518 69.353Z" fill="#FFB6B6"/>
<path d="M25.8869 114.329C25.8747 114.329 25.8627 114.327 25.851 114.324C25.7248 114.289 25.6251 114.261 26.0805 110.325L26.572 107.213L26.0922 104.465L25.2851 103.659L26.5822 102.362L27.6707 99.2708L25.7873 96.4807L23.6265 85.0702C23.2551 83.1013 23.5437 81.0648 24.4478 79.2766C25.3518 77.4884 26.8207 76.0484 28.6268 75.1798L31.1276 74.4493L32.0376 72.7809C32.2931 72.3124 32.6693 71.9208 33.1273 71.6467C33.5852 71.3725 34.1081 71.2258 34.6418 71.2219L39.2216 71.1876C39.6836 71.1841 40.1402 71.2877 40.5555 71.4902C40.9708 71.6928 41.3335 71.9887 41.6153 72.3549L43.213 74.4314L49.8387 76.6816L48.7401 100.347C48.9146 100.493 49.0569 100.674 49.158 100.878C49.2591 101.082 49.3167 101.304 49.3273 101.531C49.3379 101.759 49.3013 101.986 49.2196 102.198C49.138 102.41 49.0131 102.604 48.853 102.765C48.7841 102.835 48.7293 102.891 48.6956 102.929C48.5839 103.087 48.7935 104.272 49.0523 105.277L49.3841 106.817C49.2776 106.893 49.1881 106.991 49.1211 107.103C49.0541 107.216 49.0112 107.341 48.995 107.471C48.9789 107.6 48.9898 107.732 49.0271 107.858C49.0645 107.983 49.1274 108.099 49.212 108.199L49.6352 108.699C49.7188 109.326 49.5505 109.96 49.1671 110.463C48.7837 110.965 48.2166 111.295 47.5901 111.381C41.5349 112.205 25.9185 114.329 25.8869 114.329Z" fill="#3F3D56"/>
<path d="M35.7045 69.0182C35.6753 68.9539 35.6462 68.8894 35.6172 68.8247C35.6284 68.8251 35.6395 68.8267 35.6506 68.827L35.7045 69.0182Z" fill="#2F2E41"/>
<path d="M30.4283 55.9977C30.7528 55.6916 31.1746 55.5093 31.62 55.4826C32.0619 55.4968 32.5101 55.8959 32.4185 56.3284C33.2303 54.8914 34.5224 53.7862 36.068 53.2068C37.6137 52.6274 39.3141 52.6107 40.8707 53.1598C41.9692 53.5473 43.0464 54.3224 43.2987 55.4593C43.3233 55.7577 43.4123 56.0473 43.5596 56.3081C43.6873 56.4475 43.853 56.5465 44.0363 56.5929C44.2196 56.6393 44.4125 56.6311 44.5912 56.5693L44.602 56.5661C44.6632 56.5453 44.7292 56.5432 44.7915 56.5603C44.8539 56.5773 44.9097 56.6126 44.9517 56.6617C44.9937 56.7108 45.02 56.7714 45.0273 56.8356C45.0345 56.8998 45.0223 56.9647 44.9922 57.0219L44.6814 57.6014C45.0732 57.6887 45.4803 57.6801 45.868 57.5762C45.9324 57.5593 46.0004 57.5627 46.0628 57.586C46.1252 57.6094 46.1788 57.6514 46.2163 57.7064C46.2539 57.7614 46.2735 57.8266 46.2724 57.8932C46.2714 57.9597 46.2498 58.0243 46.2106 58.0781C45.6941 58.7846 45.0198 59.3608 44.2413 59.7609C43.4628 60.161 42.6017 60.3738 41.7264 60.3826C40.4846 60.375 39.23 59.9471 38.0214 60.2326C37.5539 60.3431 37.117 60.5568 36.7429 60.858C36.3687 61.1593 36.0667 61.5405 35.8592 61.9737C35.6516 62.4068 35.5436 62.8809 35.5432 63.3612C35.5428 63.8416 35.65 64.3159 35.8569 64.7494C35.4856 64.3434 34.7679 64.4395 34.3881 64.8376C34.2132 65.0507 34.0839 65.2974 34.0083 65.5625C33.9326 65.8275 33.9122 66.1053 33.9483 66.3786C34.0495 67.2156 34.2981 68.0281 34.6825 68.7786C33.214 68.7334 31.7947 68.2388 30.6165 67.3614C29.4382 66.484 28.5576 65.2663 28.0937 63.8726C27.6298 62.4789 27.6049 60.9764 28.0224 59.5681C28.4399 58.1598 29.2797 56.9136 30.4283 55.9977Z" fill="#2F2E41"/>
<path d="M28.547 124.129C27.8936 123.658 27.4515 122.949 27.3162 122.155C27.1808 121.361 27.363 120.546 27.8235 119.885C27.9256 119.739 28.0405 119.603 28.1667 119.477L23.5547 109.698L29.0628 110.491L32.598 119.656C33.1239 120.271 33.3865 121.069 33.3288 121.876C33.2712 122.684 32.8981 123.436 32.2901 123.971C31.7767 124.418 31.1266 124.677 30.4464 124.706C29.7662 124.735 29.0964 124.531 28.547 124.129Z" fill="#FFB6B6"/>
<path d="M27.1506 118.79L19.8118 102.3L19.7383 89.2757L22.0516 82.2407C22.3655 81.2863 22.8675 80.4044 23.5281 79.6472C24.1887 78.8901 24.9944 78.273 25.8975 77.8324C26.8007 77.3919 27.7831 77.1369 28.7865 77.0824C29.79 77.0279 30.7942 77.175 31.7398 77.5152L31.7907 77.5335L31.8121 77.5833C31.8976 77.7828 33.8378 82.581 28.0826 92.4518L26.9244 99.2059L30.9885 114.688L27.1506 118.79Z" fill="#3F3D56"/>
</g>
<defs>
<clipPath id="clip0_34_7924">
<rect width="282" height="175" fill="white"/>
</clipPath>
</defs>
</svg>
