<svg width="292" height="194" viewBox="0 0 292 194" fill="none" xmlns="http://www.w3.org/2000/svg">
<g clip-path="url(#clip0_795_2148)">
<path d="M104.881 111.649C114.853 94.0505 133.876 80.5379 154.014 81.8396C139.16 98.0436 130.498 118.996 129.561 140.99C129.231 149.473 129.743 158.943 124.128 165.295C120.635 169.248 115.295 171.162 110.044 171.564C104.793 171.965 99.5436 171.013 94.3629 170.066L93.1062 170.453C92.6278 150.215 94.9082 129.247 104.881 111.649Z" fill="#F0F0F0"/>
<path d="M154.045 82.2634C139.154 89.4548 126.456 101.465 118.662 116.113C116.977 119.279 115.542 122.639 114.916 126.191C114.29 129.745 114.727 133.127 115.937 136.503C117.043 139.588 118.531 142.616 118.87 145.918C119.228 149.398 117.951 152.652 115.653 155.235C112.842 158.394 109.067 160.352 105.308 162.138C101.135 164.122 96.7696 166.115 93.814 169.816C93.4559 170.265 92.7832 169.681 93.1407 169.233C98.2831 162.794 107.085 161.583 113.189 156.396C116.038 153.976 118.176 150.679 118.041 146.817C117.923 143.44 116.392 140.316 115.245 137.202C114.04 133.931 113.44 130.643 113.872 127.156C114.313 123.59 115.62 120.167 117.217 116.971C120.819 109.763 125.748 103.145 131.395 97.4248C137.885 90.8494 145.448 85.4362 153.757 81.4192C154.272 81.1708 154.556 82.0167 154.045 82.2634Z" fill="white"/>
<path d="M120.944 111.217C118.661 109.543 117.046 107.109 116.387 104.35C115.728 101.591 116.068 98.6869 117.346 96.1563C117.607 95.6451 118.411 96.0271 118.15 96.5389C116.955 98.8932 116.639 101.598 117.258 104.166C117.877 106.734 119.39 108.995 121.525 110.542C121.989 110.879 121.405 111.552 120.944 111.217Z" fill="white"/>
<path d="M115.171 135.012C120.891 134.173 126.086 131.203 129.72 126.693C130.08 126.245 130.753 126.829 130.394 127.276C126.603 131.962 121.19 135.042 115.236 135.902C114.668 135.983 114.606 135.093 115.171 135.012Z" fill="white"/>
<path d="M138.323 91.9473C139.072 92.7799 140.015 93.4128 141.068 93.7894C142.121 94.1659 143.25 94.2742 144.355 94.1046C144.921 94.0159 144.983 94.9063 144.42 94.9944C143.199 95.1761 141.951 95.055 140.787 94.6415C139.623 94.2281 138.578 93.535 137.742 92.6227C137.656 92.5433 137.604 92.4341 137.595 92.3173C137.586 92.2004 137.623 92.0846 137.696 91.9935C137.773 91.9045 137.883 91.8497 138 91.841C138.118 91.8324 138.234 91.8706 138.323 91.9473Z" fill="white"/>
<path d="M194.08 137.356C193.728 137.421 193.376 137.487 193.021 137.559C188.292 138.464 183.645 139.753 179.125 141.412C178.773 141.535 178.419 141.665 178.071 141.798C167.223 145.913 157.231 152.013 148.603 159.788C145.172 162.884 141.981 166.239 139.058 169.821C135.021 174.769 131.036 180.456 125.761 183.682C125.215 184.025 124.647 184.333 124.063 184.605L93.6735 171.961C93.6188 171.897 93.5609 171.84 93.5059 171.777L92.2695 171.328C92.4074 171.132 92.5547 170.933 92.6926 170.737C92.7721 170.624 92.8584 170.513 92.9379 170.399C92.9931 170.324 93.0486 170.25 93.0941 170.179C93.1124 170.154 93.131 170.129 93.1464 170.111C93.1919 170.04 93.2416 169.979 93.2843 169.916C94.1041 168.798 94.9331 167.683 95.7715 166.573C95.7744 166.566 95.7744 166.566 95.784 166.562C102.193 158.118 109.361 150.136 117.509 143.499C117.755 143.3 118.002 143.093 118.261 142.899C121.951 139.928 125.876 137.265 129.998 134.935C132.259 133.667 134.582 132.514 136.96 131.482C143.107 128.826 149.633 127.156 156.298 126.534C169.585 125.296 183.118 128.335 193.308 136.708C193.569 136.923 193.823 137.134 194.08 137.356Z" fill="#F0F0F0"/>
<path d="M193.855 137.714C177.649 134.462 160.303 136.383 145.288 143.37C142.042 144.881 138.88 146.697 136.248 149.155C133.616 151.614 131.934 154.579 130.875 158.005C129.906 161.137 129.277 164.453 127.566 167.294C125.763 170.288 122.791 172.116 119.406 172.79C115.265 173.615 111.075 172.898 107.002 172.054C102.48 171.117 97.7981 170.072 93.2168 171.242C92.6617 171.384 92.4749 170.512 93.0291 170.37C101 168.334 108.754 172.684 116.741 172.229C120.468 172.017 124.154 170.676 126.364 167.511C128.297 164.743 128.949 161.324 129.902 158.145C130.904 154.806 132.398 151.818 134.835 149.295C137.329 146.714 140.426 144.77 143.62 143.183C150.822 139.603 158.729 137.296 166.671 136.14C175.799 134.809 185.086 135.055 194.132 136.866C194.692 136.978 194.411 137.826 193.855 137.714Z" fill="white"/>
<path d="M150.048 140.841C149.231 138.125 149.402 135.206 150.531 132.605C151.661 130.004 153.675 127.891 156.215 126.642C156.73 126.391 157.142 127.182 156.627 127.433C154.26 128.591 152.384 130.56 151.337 132.984C150.29 135.408 150.141 138.128 150.918 140.652C151.086 141.201 150.216 141.386 150.048 140.841Z" fill="white"/>
<path d="M131.155 156.352C136.225 159.138 142.156 159.904 147.765 158.497C148.32 158.357 148.507 159.23 147.953 159.369C142.113 160.822 135.943 160.012 130.673 157.102C130.171 156.824 130.655 156.076 131.155 156.352Z" fill="white"/>
<path d="M175.49 135.951C175.588 137.068 175.961 138.143 176.576 139.08C177.191 140.016 178.028 140.785 179.012 141.317C179.517 141.588 179.032 142.336 178.53 142.067C177.445 141.474 176.522 140.624 175.84 139.591C175.159 138.557 174.74 137.372 174.621 136.139C174.6 136.024 174.623 135.905 174.687 135.807C174.75 135.708 174.848 135.638 174.962 135.609C175.077 135.585 175.197 135.607 175.296 135.671C175.395 135.735 175.465 135.836 175.49 135.951Z" fill="white"/>
<path d="M136.193 158.217C131.937 137.574 126.617 130.691 126.617 130.691L124.585 129.11L122.14 127.206L122.152 126.961L121.573 126.763L121.436 126.657L121.213 126.485L121.177 126.524L121.102 126.603L110.042 122.832L96.0109 118.051L89.5136 109.579C88.4555 108.199 87.0931 107.084 85.5334 106.321C83.9737 105.558 82.259 105.167 80.5237 105.18L59.7736 105.334C56.9679 105.355 54.2715 106.428 52.2144 108.342L38.5756 121.033L17.3238 131.214L17.288 131.178L17.0648 131.338L13.7812 132.913L13.9167 133.621L11.8844 135.092C11.8844 135.092 6.56444 141.496 2.30849 160.704C1.22583 165.592 0.692899 176.076 0.500541 188.995C0.490878 189.649 0.610829 190.298 0.853416 190.904C1.096 191.511 1.45639 192.063 1.91361 192.529C2.37084 192.995 2.91578 193.364 3.51676 193.617C4.11774 193.869 4.76277 194 5.41433 194H118.924L133.092 194C133.743 193.999 134.388 193.869 134.988 193.617C135.589 193.365 136.133 192.996 136.591 192.531C137.048 192.065 137.408 191.514 137.651 190.908C137.894 190.302 138.015 189.654 138.006 189C137.818 174.942 137.285 163.517 136.193 158.217Z" fill="#3F3D56"/>
<path d="M150.757 18.0024C146.341 18.0024 142.105 19.7623 138.983 22.8949C135.86 26.0275 134.105 30.2762 134.105 34.7063C134.105 39.1365 135.86 43.3852 138.983 46.5177C142.105 49.6503 146.341 51.4102 150.757 51.4102H274.849C279.265 51.4102 283.5 49.6503 286.623 46.5177C289.746 43.3852 291.5 39.1365 291.5 34.7063C291.5 30.2762 289.746 26.0275 286.623 22.8949C283.5 19.7623 279.265 18.0024 274.849 18.0024H150.757Z" fill="#E5E5E5"/>
<path d="M150.758 21.3828C147.236 21.3828 143.857 22.7865 141.367 25.2851C138.876 27.7837 137.477 31.1726 137.477 34.7062C137.477 38.2397 138.876 41.6286 141.367 44.1272C143.857 46.6258 147.236 48.0295 150.758 48.0295H274.85C278.373 48.0295 281.751 46.6258 284.241 44.1272C286.732 41.6286 288.132 38.2397 288.132 34.7062C288.132 31.1726 286.732 27.7837 284.241 25.2851C281.751 22.7865 278.373 21.3828 274.85 21.3828H150.758Z" fill="white"/>
<path d="M73.4074 97.3604C88.4211 97.3604 100.592 85.1509 100.592 70.0898C100.592 55.0288 88.4211 42.8193 73.4074 42.8193C58.3937 42.8193 46.2227 55.0288 46.2227 70.0898C46.2227 85.1509 58.3937 97.3604 73.4074 97.3604Z" fill="#9E616A"/>
<path d="M66.4529 96.0251C66.3368 95.7686 66.221 95.5112 66.1055 95.2529C66.15 95.2544 66.194 95.2608 66.2385 95.2619L66.4529 96.0251Z" fill="#2F2E41"/>
<path d="M45.4654 44.0594C46.8403 42.9591 48.4472 41.9467 50.2052 42.0036C51.963 42.0605 53.7456 43.6532 53.3814 45.3793C56.6103 39.6442 61.7497 35.2333 67.8975 32.9208C74.0453 30.6083 80.8086 30.5419 87.0004 32.7333C91.3694 34.2796 95.654 37.3731 96.6576 41.9104C96.9152 43.0751 96.9706 44.3522 97.6955 45.298C98.6095 46.4905 100.358 46.7602 101.798 46.3407C101.813 46.3365 101.827 46.3323 101.842 46.328C102.085 46.2447 102.347 46.2365 102.595 46.3045C102.843 46.3725 103.065 46.5136 103.232 46.7095C103.4 46.9054 103.504 47.1471 103.533 47.4033C103.562 47.6596 103.513 47.9186 103.394 48.1469L102.157 50.4597C103.716 50.8081 105.335 50.7736 106.877 50.359C107.133 50.2916 107.404 50.3054 107.652 50.3984C107.9 50.4914 108.113 50.6592 108.263 50.8786C108.412 51.0981 108.49 51.3585 108.486 51.6241C108.482 51.8898 108.396 52.1477 108.24 52.3624C104.164 57.9766 97.3534 61.6019 90.4038 61.5593C85.4645 61.5291 80.4743 59.8214 75.6672 60.9608C73.8075 61.4016 72.0698 62.2545 70.5815 63.4569C69.0933 64.6593 67.8923 66.1806 67.0666 67.9094C66.2409 69.6381 65.8116 71.5303 65.81 73.4473C65.8084 75.3642 66.2346 77.2571 67.0575 78.9872C65.5807 77.3669 62.726 77.7505 61.2153 79.3392C59.7048 80.9279 59.3137 83.2992 59.466 85.4894C59.6987 88.8393 61.007 91.9958 62.3863 95.0679C50.8223 94.7027 39.8845 86.5651 36.2029 75.5588C32.5058 64.5063 36.3805 51.3295 45.4654 44.0594Z" fill="#2F2E41"/>
<path opacity="0.2" d="M27.2578 151.985L34.8825 193.6L39.4575 194L27.2578 151.985Z" fill="black"/>
<path opacity="0.2" d="M111.243 148.846L103.618 193.57L99.043 194L111.243 148.846Z" fill="black"/>
<path d="M51.9683 30.0537C50.5064 30.6661 48.9809 29.995 48.3412 28.4581C47.6917 26.8976 48.2983 25.3136 49.7837 24.6914C51.2692 24.0691 52.7675 24.7419 53.4275 26.3275C54.0776 27.8893 53.4775 29.4215 51.9683 30.0537ZM49.1679 21.62L48.0055 22.1069C47.7151 22.2271 47.3903 22.2335 47.0954 22.125C46.8005 22.0165 46.5569 21.8009 46.4128 21.5209L46.3554 21.4081C45.1046 19.1453 44.9614 16.3952 45.932 13.2385C46.8311 10.4068 47.2045 8.41532 46.4535 6.6111C45.5852 4.52509 43.731 3.87164 41.3666 4.81823C40.4495 5.20237 40.1577 5.19625 39.436 5.91442C39.279 6.07254 39.0919 6.19732 38.8858 6.28134C38.6797 6.36535 38.4589 6.40687 38.2365 6.40342C38.0214 6.40088 37.8091 6.35493 37.6122 6.2683C37.4152 6.18167 37.2377 6.05615 37.0901 5.89921C36.8059 5.59676 36.6466 5.19738 36.6446 4.78172C36.6425 4.36606 36.7977 3.96509 37.0789 3.65978C38.2919 2.38598 39.755 1.37824 41.3757 0.70016C46.4559 -1.42786 49.0133 1.71385 50.1837 4.52539C51.3284 7.2754 50.6844 9.82694 49.6498 13.1314C48.7828 15.8773 48.8333 17.9119 49.8182 19.935C49.8893 20.0879 49.9289 20.2537 49.9345 20.4224C49.9401 20.591 49.9117 20.7591 49.851 20.9165C49.7903 21.0739 49.6984 21.2173 49.5811 21.3382C49.4637 21.4591 49.3231 21.5549 49.1679 21.62Z" fill="#6C63FF"/>
<path d="M178.167 42.6731H153.478C153.399 42.6737 153.321 42.6586 153.249 42.6289C153.176 42.5991 153.11 42.5553 153.055 42.4998C152.999 42.4444 152.955 42.3784 152.925 42.3058C152.894 42.2332 152.879 42.1552 152.879 42.0766C152.879 41.9979 152.894 41.92 152.925 41.8473C152.955 41.7747 152.999 41.7087 153.055 41.6533C153.11 41.5978 153.176 41.554 153.249 41.5242C153.321 41.4945 153.399 41.4795 153.478 41.48H178.167C178.324 41.4811 178.475 41.5444 178.585 41.6561C178.696 41.7679 178.758 41.919 178.758 42.0766C178.758 42.2341 178.696 42.3852 178.585 42.497C178.475 42.6087 178.324 42.6721 178.167 42.6731Z" fill="#6C63FF"/>
<path d="M209.488 42.8719H184.798C184.72 42.8724 184.642 42.8574 184.569 42.8276C184.497 42.7979 184.43 42.754 184.375 42.6986C184.319 42.6431 184.275 42.5772 184.245 42.5045C184.215 42.4319 184.199 42.354 184.199 42.2753C184.199 42.1966 184.215 42.1187 184.245 42.0461C184.275 41.9734 184.319 41.9075 184.375 41.852C184.43 41.7966 184.497 41.7527 184.569 41.723C184.642 41.6932 184.72 41.6782 184.798 41.6787H209.488C209.566 41.6782 209.644 41.6932 209.717 41.723C209.789 41.7527 209.855 41.7966 209.911 41.852C209.966 41.9075 210.011 41.9734 210.041 42.0461C210.071 42.1187 210.086 42.1966 210.086 42.2753C210.086 42.354 210.071 42.4319 210.041 42.5045C210.011 42.5772 209.966 42.6431 209.911 42.6986C209.855 42.754 209.789 42.7979 209.717 42.8276C209.644 42.8574 209.566 42.8724 209.488 42.8719Z" fill="#6C63FF"/>
<path d="M240.808 43.0706H216.118C215.961 43.0695 215.811 43.0062 215.7 42.8944C215.589 42.7827 215.527 42.6315 215.527 42.474C215.527 42.3165 215.589 42.1654 215.7 42.0536C215.811 41.9418 215.961 41.8785 216.118 41.8775H240.808C240.886 41.8769 240.964 41.892 241.037 41.9217C241.109 41.9514 241.175 41.9953 241.231 42.0507C241.287 42.1062 241.331 42.1721 241.361 42.2448C241.391 42.3174 241.406 42.3953 241.406 42.474C241.406 42.5527 241.391 42.6306 241.361 42.7033C241.331 42.7759 241.287 42.8419 241.231 42.8973C241.175 42.9528 241.109 42.9966 241.037 43.0263C240.964 43.0561 240.886 43.0711 240.808 43.0706Z" fill="#6C63FF"/>
<path d="M272.128 43.2693H247.438C247.281 43.2682 247.131 43.2049 247.02 43.0931C246.91 42.9814 246.848 42.8303 246.848 42.6727C246.848 42.5152 246.91 42.3641 247.02 42.2523C247.131 42.1406 247.281 42.0772 247.438 42.0762H272.128C272.285 42.0772 272.435 42.1406 272.546 42.2523C272.657 42.3641 272.719 42.5152 272.719 42.6727C272.719 42.8303 272.657 42.9814 272.546 43.0931C272.435 43.2049 272.285 43.2682 272.128 43.2693Z" fill="#6C63FF"/>
<path d="M165.768 37.1826C168.303 37.1826 170.357 35.1216 170.357 32.5793C170.357 30.037 168.303 27.9761 165.768 27.9761C163.234 27.9761 161.18 30.037 161.18 32.5793C161.18 35.1216 163.234 37.1826 165.768 37.1826Z" fill="#6C63FF"/>
<path d="M197.276 37.1826C199.811 37.1826 201.865 35.1216 201.865 32.5793C201.865 30.037 199.811 27.9761 197.276 27.9761C194.742 27.9761 192.688 30.037 192.688 32.5793C192.688 35.1216 194.742 37.1826 197.276 37.1826Z" fill="#6C63FF"/>
<path d="M228.788 37.1826C231.322 37.1826 233.377 35.1216 233.377 32.5793C233.377 30.037 231.322 27.9761 228.788 27.9761C226.254 27.9761 224.199 30.037 224.199 32.5793C224.199 35.1216 226.254 37.1826 228.788 37.1826Z" fill="#6C63FF"/>
<path d="M260.296 37.1826C262.83 37.1826 264.885 35.1216 264.885 32.5793C264.885 30.037 262.83 27.9761 260.296 27.9761C257.761 27.9761 255.707 30.037 255.707 32.5793C255.707 35.1216 257.761 37.1826 260.296 37.1826Z" fill="#6C63FF"/>
</g>
<defs>
<clipPath id="clip0_795_2148">
<rect width="291" height="194" fill="white" transform="translate(0.5)"/>
</clipPath>
</defs>
</svg>
