
<svg width="316" height="214" viewBox="0 0 316 214" fill="none" xmlns="http://www.w3.org/2000/svg">
<g clip-path="url(#clip0_94_3414)">
<path d="M96.719 99.2427H56.043V144.791H96.719V99.2427Z" fill="#CCCCCC"/>
<path d="M35.3367 213.297H14.6289L12.4102 195.522H37.5554L35.3367 213.297Z" fill="#E6E6E6"/>
<path d="M76.9178 200.423L76.219 209.99C76.1874 210.423 76.2486 210.858 76.3985 211.265C76.5484 211.672 76.7836 212.043 77.0883 212.352C77.393 212.661 77.7601 212.901 78.165 213.056C78.5699 213.211 79.0033 213.278 79.4361 213.252L84.3431 212.954C84.5705 212.94 84.792 212.877 84.992 212.767C85.1919 212.658 85.3654 212.506 85.5001 212.322C85.6347 212.138 85.7273 211.927 85.7712 211.703C85.8151 211.479 85.8092 211.248 85.7539 211.027L83.0301 200.117L76.9178 200.423Z" fill="#E6E6E6"/>
<path d="M117.963 206.08C123.738 207.433 127.863 209.356 130.574 211.958C131.539 212.878 132.801 213.42 134.132 213.486C135.832 213.575 137.222 213.385 138.266 212.917C138.534 212.799 138.765 212.612 138.936 212.374C139.106 212.136 139.21 211.857 139.237 211.566C139.268 211.269 139.22 210.97 139.098 210.699C138.975 210.427 138.782 210.194 138.538 210.023L124.842 200.263L119.024 202.594L117.667 203.953C117.52 204.1 117.409 204.279 117.343 204.477C117.277 204.674 117.258 204.884 117.286 205.09C117.315 205.296 117.391 205.493 117.508 205.665C117.626 205.836 117.781 205.979 117.963 206.08Z" fill="#E6E6E6"/>
<path d="M100.189 49.8784L61.0391 49.5154C61.1375 43.805 62.4642 38.1975 65.3643 33.1797C67.269 29.8841 67.2278 26.2976 66.7688 23.276C66.0605 18.6131 67.7076 13.8422 71.3678 10.874C74.1649 8.60162 77.6952 7.43191 81.2938 7.58513L82.0539 7.61685C84.5302 7.7199 86.9408 8.44427 89.0647 9.72344C91.1885 11.0026 92.9574 12.7956 94.2089 14.9378C95.481 17.2246 95.9939 19.8573 95.6737 22.4553C95.4256 24.8998 96.0194 27.3692 97.4082 29.8621C99.8044 35.3363 100.323 42.3411 100.189 49.8784Z" fill="#2F2E41"/>
<path d="M126.384 200.772L118.7 202.779L81.2844 121.15L83.6229 200.772H75.9392C67.7288 163.312 52.9053 120.079 59.5698 106.43L99.3242 104.088L126.384 200.772Z" fill="#6C63FF"/>
<path d="M80.9499 36.1759C86.6695 36.1759 91.3061 31.5327 91.3061 25.805C91.3061 20.0773 86.6695 15.4341 80.9499 15.4341C75.2304 15.4341 70.5938 20.0773 70.5938 25.805C70.5938 31.5327 75.2304 36.1759 80.9499 36.1759Z" fill="#FFB9B9"/>
<path d="M89.9673 44.8742L72.9297 43.8706C74.5994 40.0328 75.2664 36.3372 74.6 32.8306H87.2947C87.266 35.5229 88.6039 40.1802 89.9673 44.8742Z" fill="#FFB9B9"/>
<path d="M100.658 107.099L63.2422 109.776L67.0839 43.3685L73.5983 41.5284L80.9477 43.2011L88.2972 39.521L92.9742 41.194L100.658 107.099Z" fill="#6C63FF"/>
<path d="M69.5916 154.94L44.0352 149.085C51.6344 123.849 65.3248 66.1172 60.9057 45.5433L74.2686 39.5215L69.5916 154.94Z" fill="#E6E6E6"/>
<path d="M57.231 82.0087L47.543 75.9869L55.8052 51.7542C56.7267 49.2536 58.4917 47.1542 60.7951 45.8187L63.5784 44.2051L61.908 68.6269L57.231 82.0087Z" fill="#E6E6E6"/>
<path d="M122.873 149.419C114.806 154.093 94.6438 156.698 85.7908 153.434C85.1394 130.633 83.8618 66.1379 87.9623 38.8521L102.661 44.8739L101.325 62.9393C94.2977 78.3933 114.704 132.22 122.873 149.419Z" fill="#E6E6E6"/>
<path d="M121.707 78.9979L112.687 75.9869L100.66 62.2704L102.665 44.874L122.709 72.976L121.707 78.9979Z" fill="#E6E6E6"/>
<path d="M93.4368 92.0193C93.5844 92.6679 93.9828 93.2314 94.5446 93.5862C95.1065 93.9411 95.7859 94.0584 96.434 93.9124L104.091 92.1759L102.984 87.2817L95.3272 89.0179C94.6791 89.1649 94.1159 89.5637 93.7614 90.1266C93.4069 90.6894 93.2901 91.3702 93.4368 92.0193Z" fill="#FFB9B9"/>
<path d="M89.9698 23.1284C84.2176 20.7597 78.5365 20.5883 72.9322 22.7938L70.5938 14.4302H91.9743L89.9698 23.1284Z" fill="#2F2E41"/>
<path d="M100.324 86.3579L104.667 94.387C111.972 92.3468 118.303 85.9148 124.377 78.3288L122.707 72.9761L112.351 75.6524L100.324 86.3579Z" fill="#E6E6E6"/>
<path d="M97.1509 69.7978H95.8146C95.8146 50.8712 91.9232 37.6814 88.131 37.6814L87.7969 36.3433C91.1978 36.3433 93.366 41.8327 94.586 46.4379C96.24 52.6811 97.1509 60.9771 97.1509 69.7978Z" fill="#3F3D56"/>
<path d="M66.4183 65.114H65.082C65.082 47.7802 69.0004 37.0122 74.7701 37.0122L74.436 38.3504C70.4451 38.3504 66.4183 46.626 66.4183 65.114Z" fill="#3F3D56"/>
<path d="M96.4813 73.4775C98.3264 73.4775 99.822 71.9797 99.822 70.1321C99.822 68.2844 98.3264 66.7866 96.4813 66.7866C94.6363 66.7866 93.1406 68.2844 93.1406 70.1321C93.1406 71.9797 94.6363 73.4775 96.4813 73.4775Z" fill="#3F3D56"/>
<path d="M61.0707 73.143H59.7344C59.7344 68.3468 62.4319 64.4448 65.7476 64.4448V65.783C63.1687 65.783 61.0707 69.0847 61.0707 73.143Z" fill="#3F3D56"/>
<path d="M71.7633 73.143H70.427C70.427 69.0847 68.3289 65.783 65.75 65.783V64.4448C69.0657 64.4448 71.7633 68.3468 71.7633 73.143Z" fill="#3F3D56"/>
<path d="M71.0941 74.816C71.8321 74.816 72.4304 74.2169 72.4304 73.4778C72.4304 72.7388 71.8321 72.1396 71.0941 72.1396C70.3561 72.1396 69.7578 72.7388 69.7578 73.4778C69.7578 74.2169 70.3561 74.816 71.0941 74.816Z" fill="#3F3D56"/>
<path d="M60.4027 74.816C61.1407 74.816 61.739 74.2169 61.739 73.4778C61.739 72.7388 61.1407 72.1396 60.4027 72.1396C59.6647 72.1396 59.0664 72.7388 59.0664 73.4778C59.0664 74.2169 59.6647 74.816 60.4027 74.816Z" fill="#3F3D56"/>
<path d="M43.6992 61.1724L52.0367 62.6632L71.0931 89.7979L60.9692 87.4124L43.6992 61.1724Z" fill="#6C63FF"/>
<path d="M42.2219 60.8398C42.0948 60.8418 41.9706 60.8778 41.8623 60.9443C41.7539 61.0107 41.6654 61.1051 41.6059 61.2175C41.5464 61.33 41.5182 61.4564 41.5242 61.5835C41.5302 61.7106 41.5702 61.8337 41.64 61.94L59.453 89.0051C59.5524 89.1564 59.7059 89.2638 59.882 89.3051L68.1698 91.2579C68.3095 91.2908 68.4559 91.2804 68.5897 91.2281C68.7234 91.1757 68.838 91.084 68.9184 90.9649C68.9988 90.8458 69.0412 90.705 69.0399 90.5613C69.0385 90.4175 68.9936 90.2775 68.911 90.16L49.3535 62.3121C49.3005 62.2363 49.233 62.1716 49.155 62.1219C49.077 62.0721 48.99 62.0382 48.8989 62.0222L42.3555 60.8519C42.3114 60.844 42.2667 60.84 42.2219 60.8398Z" fill="#3F3D56"/>
<path d="M53.332 80.1912L53.8271 85.1849L61.6393 84.4083C62.3005 84.3426 62.9086 84.0165 63.3298 83.5018C63.751 82.9871 63.9507 82.3259 63.8851 81.6637C63.8195 81.0015 63.4939 80.3925 62.9799 79.9707C62.4659 79.5489 61.8056 79.3489 61.1444 79.4146L53.332 80.1912Z" fill="#FFB9B9"/>
<path d="M46.5391 79.613C46.5504 81.3157 47.2333 82.945 48.4389 84.1457C49.6446 85.3464 51.2753 86.0213 52.9756 86.0233H54.2602L55.1954 78.2188L47.4522 75.4272L46.5391 79.613Z" fill="#E6E6E6"/>
<path d="M315.999 0H163.648V80.3568H315.999V0Z" fill="#E6E6E6"/>
<path d="M168.086 75.9133H311.562V4.44385H168.086V75.9133Z" fill="white"/>
<path d="M230.21 14.8125H179.18V65.915H230.21V14.8125Z" fill="#3F3D56"/>
<path d="M218.006 38.1417C218.823 38.1417 219.486 37.4785 219.486 36.6604C219.486 35.8424 218.823 35.1792 218.006 35.1792C217.19 35.1792 216.527 35.8424 216.527 36.6604C216.527 37.4785 217.19 38.1417 218.006 38.1417Z" fill="#6C63FF"/>
<path d="M212.46 32.9576C213.276 32.9576 213.939 32.2944 213.939 31.4763C213.939 30.6583 213.276 29.9951 212.46 29.9951C211.643 29.9951 210.98 30.6583 210.98 31.4763C210.98 32.2944 211.643 32.9576 212.46 32.9576Z" fill="#6C63FF"/>
<path d="M211.72 36.6605C211.175 36.6606 210.642 36.812 210.178 37.0978C209.77 36.4831 209.291 35.9193 208.749 35.4181C208.756 35.3391 208.761 35.2599 208.761 35.1792C208.762 34.598 208.591 34.0295 208.271 33.5446C207.951 33.0597 207.496 32.6799 206.961 32.4526C206.427 32.2252 205.838 32.1604 205.267 32.2662C204.697 32.372 204.17 32.6437 203.752 33.0474C202.96 32.9348 202.156 32.9278 201.362 33.0265C201.363 33.0033 201.366 32.9807 201.366 32.9574C201.366 32.4615 201.243 31.9734 201.006 31.5379C200.769 31.1023 200.427 30.7332 200.011 30.4644C199.595 30.1955 199.118 30.0356 198.625 29.9992C198.131 29.9628 197.636 30.0511 197.185 30.2561C196.734 30.461 196.342 30.776 196.044 31.1722C195.746 31.5684 195.552 32.0331 195.481 32.5237C195.409 33.0143 195.461 33.5151 195.632 33.9803C195.804 34.4454 196.09 34.86 196.463 35.1859C195.967 35.6108 195.518 36.0866 195.122 36.6056C194.757 36.3013 194.324 36.0895 193.86 35.9882C193.396 35.8869 192.914 35.8991 192.456 36.0236C191.997 36.1482 191.576 36.3814 191.226 36.7037C190.877 37.026 190.61 37.4278 190.449 37.8752C190.287 38.3225 190.235 38.8023 190.298 39.2738C190.361 39.7454 190.536 40.1948 190.809 40.5842C191.082 40.9736 191.444 41.2915 191.866 41.5109C192.287 41.7303 192.755 41.8448 193.23 41.8448L193.24 41.8443C193.235 41.9675 193.23 42.0907 193.23 42.2151C193.231 42.9605 193.32 43.7031 193.498 44.4269C192.619 44.7582 191.838 45.3078 191.229 46.024C190.62 46.7403 190.203 47.5997 190.017 48.5217C189.83 49.4437 189.881 50.398 190.163 51.2951C190.446 52.1922 190.952 53.0026 191.633 53.6502C192.315 54.2979 193.149 54.7617 194.058 54.9979C194.967 55.2342 195.922 55.2352 196.832 55.0009C197.741 54.7667 198.577 54.3047 199.259 53.6585C199.942 53.0123 200.45 52.203 200.734 51.3066C202.792 51.7027 204.923 51.3861 206.777 50.4089C206.967 50.8553 207.263 51.2483 207.639 51.5535C208.015 51.8586 208.461 52.0666 208.936 52.159C209.412 52.2515 209.903 52.2257 210.366 52.0839C210.829 51.9421 211.25 51.6886 211.593 51.3456C211.935 51.0027 212.188 50.5808 212.33 50.117C212.471 49.6532 212.497 49.1617 212.405 48.6856C212.313 48.2095 212.105 47.7634 211.8 47.3864C211.495 47.0095 211.103 46.7132 210.657 46.5236C211.298 45.3061 211.658 43.9601 211.71 42.5849L211.72 42.5854C212.504 42.5854 213.257 42.2733 213.811 41.7177C214.366 41.1622 214.678 40.4086 214.678 39.6229C214.678 38.8372 214.366 38.0837 213.811 37.5282C213.257 36.9726 212.504 36.6605 211.72 36.6605Z" fill="#6C63FF"/>
<path d="M210.983 13.7012H196.191V15.923H210.983V13.7012Z" fill="#E6E6E6"/>
<path d="M295.292 14.8125H244.262V65.915H295.292V14.8125Z" fill="#3F3D56"/>
<path d="M279.466 49.4732C279.834 49.4732 280.132 49.1748 280.132 48.8067C280.132 48.4386 279.834 48.1401 279.466 48.1401C279.099 48.1401 278.801 48.4386 278.801 48.8067C278.801 49.1748 279.099 49.4732 279.466 49.4732Z" fill="#6C63FF"/>
<path d="M276.97 47.1402C277.338 47.1402 277.636 46.8418 277.636 46.4737C277.636 46.1056 277.338 45.8071 276.97 45.8071C276.603 45.8071 276.305 46.1056 276.305 46.4737C276.305 46.8418 276.603 47.1402 276.97 47.1402Z" fill="#6C63FF"/>
<path d="M276.636 48.8068C276.391 48.8069 276.151 48.875 275.943 49.0036C275.759 48.727 275.543 48.4733 275.3 48.2478C275.303 48.2122 275.305 48.1766 275.305 48.1403C275.305 47.8787 275.229 47.6229 275.085 47.4047C274.941 47.1865 274.736 47.0156 274.495 46.9133C274.255 46.811 273.99 46.7818 273.733 46.8294C273.476 46.877 273.239 46.9993 273.051 47.1809C272.694 47.1303 272.333 47.1271 271.975 47.1715C271.976 47.1611 271.977 47.1509 271.977 47.1404C271.977 46.9173 271.922 46.6977 271.815 46.5017C271.709 46.3056 271.555 46.1395 271.368 46.0186C271.18 45.8976 270.966 45.8256 270.744 45.8093C270.521 45.7929 270.299 45.8326 270.096 45.9248C269.893 46.0171 269.716 46.1588 269.582 46.3371C269.448 46.5154 269.361 46.7245 269.329 46.9453C269.296 47.166 269.32 47.3914 269.397 47.6007C269.474 47.81 269.603 47.9966 269.771 48.1433C269.548 48.3345 269.346 48.5486 269.168 48.7821C269.003 48.6452 268.808 48.5499 268.6 48.5043C268.391 48.4587 268.174 48.4642 267.968 48.5202C267.761 48.5763 267.572 48.6813 267.414 48.8263C267.257 48.9713 267.137 49.1521 267.064 49.3534C266.992 49.5548 266.968 49.7706 266.997 49.9828C267.025 50.195 267.104 50.3973 267.227 50.5725C267.349 50.7477 267.513 50.8908 267.702 50.9895C267.892 51.0882 268.102 51.1398 268.316 51.1398L268.32 51.1395C268.318 51.195 268.316 51.2504 268.316 51.3064C268.316 51.6418 268.357 51.976 268.437 52.3017C268.041 52.4508 267.69 52.6981 267.416 53.0204C267.142 53.3427 266.954 53.7295 266.87 54.1444C266.786 54.5593 266.809 54.9887 266.936 55.3924C267.063 55.7961 267.291 56.1608 267.597 56.4522C267.904 56.7437 268.28 56.9523 268.689 57.0587C269.098 57.165 269.527 57.1654 269.937 57.06C270.346 56.9546 270.722 56.7467 271.029 56.4559C271.336 56.1652 271.565 55.801 271.693 55.3976C272.619 55.5758 273.578 55.4333 274.412 54.9936C274.498 55.1945 274.631 55.3713 274.8 55.5087C274.969 55.646 275.17 55.7396 275.384 55.7812C275.598 55.8228 275.819 55.8112 276.027 55.7474C276.236 55.6835 276.425 55.5695 276.579 55.4151C276.733 55.2608 276.847 55.071 276.911 54.8623C276.975 54.6536 276.986 54.4324 276.945 54.2181C276.903 54.0039 276.81 53.8031 276.673 53.6335C276.535 53.4639 276.359 53.3305 276.158 53.2452C276.447 52.6973 276.608 52.0917 276.632 51.4728L276.636 51.473C276.989 51.473 277.328 51.3326 277.578 51.0826C277.827 50.8326 277.968 50.4935 277.968 50.1399C277.968 49.7864 277.827 49.4473 277.578 49.1973C277.328 48.9473 276.989 48.8068 276.636 48.8068Z" fill="#6C63FF"/>
<path d="M284.689 36.8238C285.057 36.8238 285.355 36.5254 285.355 36.1573C285.355 35.7891 285.057 35.4907 284.689 35.4907C284.321 35.4907 284.023 35.7891 284.023 36.1573C284.023 36.5254 284.321 36.8238 284.689 36.8238Z" fill="#6C63FF"/>
<path d="M286.252 33.7857C286.619 33.7857 286.917 33.4873 286.917 33.1192C286.917 32.7511 286.619 32.4526 286.252 32.4526C285.884 32.4526 285.586 32.7511 285.586 33.1192C285.586 33.4873 285.884 33.7857 286.252 33.7857Z" fill="#6C63FF"/>
<path d="M283.922 33.4307C283.856 33.1946 283.725 32.9816 283.545 32.8155C283.761 32.5635 283.947 32.2866 284.098 31.9907C284.132 31.9838 284.167 31.9766 284.202 31.9668C284.454 31.8961 284.679 31.7528 284.85 31.5548C285.02 31.3568 285.129 31.1129 285.162 30.8534C285.195 30.594 285.151 30.3305 285.036 30.0958C284.921 29.8612 284.739 29.6657 284.513 29.5338C284.465 29.1765 284.37 28.8271 284.231 28.4947C284.241 28.4921 284.251 28.4906 284.261 28.4878C284.476 28.4275 284.672 28.3144 284.831 28.1586C284.991 28.0028 285.109 27.8094 285.174 27.5961C285.24 27.3829 285.251 27.1565 285.206 26.9379C285.162 26.7192 285.063 26.5153 284.92 26.3447C284.776 26.1741 284.592 26.0424 284.384 25.9616C284.176 25.8807 283.952 25.8534 283.731 25.8821C283.51 25.9107 283.3 25.9945 283.119 26.1257C282.939 26.2568 282.795 26.4312 282.699 26.6328C282.455 26.4698 282.194 26.333 281.922 26.2246C282.009 26.0291 282.048 25.8155 282.035 25.6018C282.022 25.3881 281.958 25.1807 281.848 24.997C281.738 24.8133 281.586 24.6588 281.404 24.5466C281.222 24.4343 281.016 24.3676 280.802 24.3521C280.589 24.3366 280.375 24.3728 280.179 24.4575C279.983 24.5423 279.81 24.6731 279.675 24.839C279.539 25.0048 279.446 25.2009 279.403 25.4104C279.359 25.62 279.367 25.837 279.425 26.0431L279.426 26.0471C279.372 26.06 279.318 26.0731 279.265 26.0883C278.942 26.1792 278.632 26.3088 278.34 26.4741C278.09 26.1332 277.757 25.8616 277.373 25.6848C276.989 25.508 276.566 25.4318 276.145 25.4634C275.723 25.495 275.317 25.6334 274.963 25.8655C274.609 26.0976 274.321 26.4158 274.124 26.7903C273.927 27.1648 273.828 27.5833 273.836 28.0066C273.845 28.4298 273.961 28.8439 274.173 29.2099C274.386 29.576 274.687 29.882 275.05 30.0993C275.413 30.3166 275.825 30.438 276.247 30.4522C276.327 31.3931 276.724 32.2788 277.373 32.964C277.203 33.1005 277.069 33.2768 276.983 33.4773C276.897 33.6778 276.861 33.8964 276.879 34.1139C276.897 34.3314 276.968 34.5412 277.086 34.7248C277.204 34.9084 277.365 35.0602 277.555 35.1669C277.745 35.2736 277.959 35.332 278.176 35.3368C278.394 35.3417 278.61 35.2929 278.805 35.1948C278.999 35.0966 279.167 34.9521 279.293 34.774C279.419 34.5958 279.499 34.3894 279.527 34.1729C280.132 34.3023 280.758 34.2942 281.359 34.1493L281.36 34.1534C281.407 34.322 281.487 34.4797 281.595 34.6173C281.703 34.755 281.838 34.8699 281.99 34.9556C282.143 35.0413 282.31 35.0961 282.484 35.1167C282.658 35.1374 282.834 35.1236 283.002 35.0762C283.171 35.0287 283.328 34.9484 283.465 34.84C283.603 34.7316 283.717 34.5972 283.803 34.4444C283.888 34.2915 283.943 34.1234 283.963 33.9494C283.984 33.7755 283.97 33.5992 283.922 33.4307Z" fill="#6C63FF"/>
<path d="M258.908 27.7662C259.275 27.7662 259.573 27.4678 259.573 27.0997C259.573 26.7315 259.275 26.4331 258.908 26.4331C258.54 26.4331 258.242 26.7315 258.242 27.0997C258.242 27.4678 258.54 27.7662 258.908 27.7662Z" fill="#6C63FF"/>
<path d="M255.505 28.0392C255.873 28.0392 256.171 27.7407 256.171 27.3726C256.171 27.0045 255.873 26.7061 255.505 26.7061C255.138 26.7061 254.84 27.0045 254.84 27.3726C254.84 27.7407 255.138 28.0392 255.505 28.0392Z" fill="#6C63FF"/>
<path d="M256.999 29.192C256.834 29.3732 256.722 29.5967 256.676 29.8376C256.348 29.787 256.016 29.7756 255.685 29.8036C255.661 29.7776 255.636 29.7516 255.61 29.7271C255.417 29.5506 255.177 29.4349 254.918 29.3943C254.66 29.3537 254.396 29.3901 254.159 29.4989C253.921 29.6077 253.721 29.7841 253.583 30.0062C253.445 30.2282 253.375 30.486 253.382 30.7475C253.105 30.977 252.858 31.2423 252.65 31.5365C252.643 31.5293 252.636 31.5214 252.628 31.5144C252.464 31.3637 252.265 31.2568 252.048 31.2034C251.832 31.15 251.606 31.1518 251.39 31.2087C251.175 31.2656 250.977 31.3758 250.815 31.5291C250.653 31.6824 250.532 31.874 250.463 32.0862C250.395 32.2984 250.38 32.5246 250.421 32.7439C250.462 32.9632 250.558 33.1686 250.699 33.3414C250.84 33.5142 251.022 33.6487 251.228 33.7327C251.435 33.8168 251.659 33.8476 251.88 33.8223C251.871 34.116 251.893 34.4099 251.945 34.6991C251.733 34.7283 251.532 34.8081 251.357 34.9318C251.183 35.0556 251.04 35.2196 250.943 35.4099C250.845 35.6003 250.794 35.8114 250.795 36.0255C250.796 36.2396 250.849 36.4503 250.948 36.6398C251.048 36.8292 251.191 36.992 251.367 37.1141C251.542 37.2363 251.745 37.3144 251.957 37.3417C252.169 37.369 252.384 37.3448 252.585 37.2711C252.785 37.1974 252.965 37.0764 253.11 36.9183L253.112 36.915C253.152 36.954 253.191 36.9929 253.232 37.0306C253.48 37.2567 253.754 37.4522 254.048 37.6127C253.891 38.0058 253.836 38.4323 253.889 38.8523C253.942 39.2723 254.101 39.6719 254.35 40.0137C254.6 40.3555 254.932 40.6282 255.315 40.8063C255.699 40.9843 256.121 41.0619 256.543 41.0317C256.964 41.0014 257.371 40.8644 257.726 40.6335C258.08 40.4026 258.37 40.0853 258.568 39.7114C258.766 39.3376 258.867 38.9194 258.859 38.4962C258.852 38.0729 258.737 37.6584 258.526 37.2917C259.282 36.727 259.824 35.9217 260.062 35.0081C260.267 35.0806 260.488 35.1013 260.703 35.0686C260.919 35.0359 261.123 34.9508 261.298 34.8206C261.473 34.6905 261.613 34.5193 261.706 34.3221C261.8 34.125 261.844 33.9078 261.834 33.6898C261.824 33.4718 261.761 33.2595 261.65 33.0717C261.539 32.8838 261.383 32.7261 261.197 32.6124C261.011 32.4987 260.8 32.4325 260.583 32.4195C260.365 32.4066 260.148 32.4473 259.95 32.5381C259.74 31.9555 259.402 31.4274 258.962 30.9926L258.965 30.9897C259.083 30.8604 259.175 30.7091 259.234 30.5444C259.294 30.3797 259.321 30.2048 259.313 30.0298C259.305 29.8547 259.263 29.683 259.189 29.5243C259.115 29.3656 259.01 29.2231 258.881 29.1049C258.752 28.9868 258.6 28.8953 258.436 28.8357C258.271 28.7762 258.097 28.7497 257.922 28.7578C257.747 28.7659 257.575 28.8084 257.417 28.8829C257.259 28.9574 257.117 29.0625 256.999 29.192Z" fill="#6C63FF"/>
<path d="M276.065 13.7012H261.273V15.923H276.065V13.7012Z" fill="#E6E6E6"/>
<path d="M9.30976 188.947C14.6419 196.098 25.7104 196.851 25.7104 196.851C25.7104 196.851 28.1337 186.009 22.8016 178.858C17.4695 171.707 6.40101 170.955 6.40101 170.955C6.40101 170.955 3.97763 181.796 9.30976 188.947Z" fill="#E6E6E6"/>
<path d="M36.4739 191.635C32.9554 196.354 25.6516 196.851 25.6516 196.851C25.6516 196.851 24.0525 189.697 27.571 184.978C31.0895 180.259 38.3933 179.763 38.3933 179.763C38.3933 179.763 39.9924 186.917 36.4739 191.635Z" fill="#E6E6E6"/>
<path d="M192.123 213.17H0V214H192.123V213.17Z" fill="#3F3D56"/>
</g>
<defs>
<clipPath id="clip0_94_3414">
<rect width="316" height="214" fill="white"/>
</clipPath>
</defs>
</svg>
